G04 #@! TF.FileFunction,Soldermask,Bot*
%FSLAX46Y46*%
G04 Gerber Fmt 4.6, Leading zero omitted, Abs format (unit mm)*
G04 Created by KiCad (PCBNEW 4.0.7) date 12/07/17 00:39:05*
%MOMM*%
%LPD*%
G01*
G04 APERTURE LIST*
%ADD10C,0.100000*%
%ADD11O,1.900000X1.900000*%
%ADD12C,2.000000*%
%ADD13C,2.800000*%
%ADD14C,2.450000*%
%ADD15C,1.300000*%
%ADD16R,0.700000X1.300000*%
%ADD17O,1.727200X2.032000*%
%ADD18C,1.727200*%
%ADD19O,1.727200X1.727200*%
%ADD20R,1.700000X1.700000*%
%ADD21O,1.700000X1.700000*%
%ADD22R,1.000000X1.250000*%
%ADD23R,0.508000X1.143000*%
%ADD24R,1.300000X0.700000*%
%ADD25C,2.100000*%
%ADD26C,10.500000*%
%ADD27R,1.400000X1.300000*%
%ADD28R,1.100000X1.100000*%
%ADD29R,0.900000X0.800000*%
%ADD30R,0.800000X0.900000*%
%ADD31O,0.950000X0.400000*%
%ADD32R,0.950000X0.400000*%
%ADD33O,0.400000X0.950000*%
%ADD34R,0.400000X0.950000*%
%ADD35R,1.400000X1.400000*%
G04 APERTURE END LIST*
D10*
D11*
X180232234Y-88732234D03*
X183767766Y-88732234D03*
X183767766Y-92267766D03*
X180232234Y-92267766D03*
D12*
X182000000Y-90500000D03*
D13*
X189500000Y-90500000D03*
X174500000Y-90500000D03*
D14*
X189500000Y-97000000D03*
X174500000Y-97000000D03*
D15*
X182000000Y-98200000D03*
D16*
X178172250Y-100500000D03*
X180072250Y-100500000D03*
X174672250Y-103000000D03*
X176572250Y-103000000D03*
X174672250Y-100500000D03*
X176572250Y-100500000D03*
X178172250Y-103000000D03*
X180072250Y-103000000D03*
X184827750Y-103000000D03*
X182927750Y-103000000D03*
X188327750Y-100500000D03*
X186427750Y-100500000D03*
X188327750Y-103000000D03*
X186427750Y-103000000D03*
X184827750Y-100500000D03*
X182927750Y-100500000D03*
D11*
X150232234Y-88732234D03*
X153767766Y-88732234D03*
X153767766Y-92267766D03*
X150232234Y-92267766D03*
D12*
X152000000Y-90500000D03*
D13*
X159500000Y-90500000D03*
X144500000Y-90500000D03*
D14*
X159500000Y-97000000D03*
X144500000Y-97000000D03*
D15*
X152000000Y-98200000D03*
D17*
X154178000Y-119126000D03*
X156718000Y-119126000D03*
X159258000Y-119126000D03*
X161798000Y-119126000D03*
X164338000Y-119126000D03*
X166878000Y-119126000D03*
X169418000Y-119126000D03*
X171958000Y-119126000D03*
X177038000Y-119126000D03*
X179578000Y-119126000D03*
X182118000Y-119126000D03*
X184658000Y-119126000D03*
X187198000Y-119126000D03*
X189738000Y-119126000D03*
X192278000Y-119126000D03*
X194818000Y-119126000D03*
X149098000Y-70866000D03*
X151638000Y-70866000D03*
X154178000Y-70866000D03*
X156718000Y-70866000D03*
X159258000Y-70866000D03*
X161798000Y-70866000D03*
X164338000Y-70866000D03*
X166878000Y-70866000D03*
X171958000Y-70866000D03*
X174498000Y-70866000D03*
X177038000Y-70866000D03*
X179578000Y-70866000D03*
X182118000Y-70866000D03*
X184658000Y-70866000D03*
X187198000Y-70866000D03*
X189738000Y-70866000D03*
D18*
X197358000Y-114046000D03*
D19*
X199898000Y-114046000D03*
X197358000Y-111506000D03*
X199898000Y-111506000D03*
X197358000Y-108966000D03*
X199898000Y-108966000D03*
X197358000Y-106426000D03*
X199898000Y-106426000D03*
X197358000Y-103886000D03*
X199898000Y-103886000D03*
X197358000Y-101346000D03*
X199898000Y-101346000D03*
X197358000Y-98806000D03*
X199898000Y-98806000D03*
X197358000Y-96266000D03*
X199898000Y-96266000D03*
X197358000Y-93726000D03*
X199898000Y-93726000D03*
X197358000Y-91186000D03*
X199898000Y-91186000D03*
X197358000Y-88646000D03*
X199898000Y-88646000D03*
X197358000Y-86106000D03*
X199898000Y-86106000D03*
X197358000Y-83566000D03*
X199898000Y-83566000D03*
X197358000Y-81026000D03*
X199898000Y-81026000D03*
X197358000Y-78486000D03*
X199898000Y-78486000D03*
X197358000Y-75946000D03*
X199898000Y-75946000D03*
X197358000Y-73406000D03*
X199898000Y-73406000D03*
X197358000Y-70866000D03*
X199898000Y-70866000D03*
D20*
X165000000Y-100500000D03*
D21*
X165000000Y-103040000D03*
X165000000Y-105580000D03*
D16*
X148500000Y-103000000D03*
X150400000Y-103000000D03*
X144996000Y-100500000D03*
X146896000Y-100500000D03*
X148500000Y-100500000D03*
X150400000Y-100500000D03*
X144996000Y-102998000D03*
X146896000Y-102998000D03*
D20*
X167005000Y-91440000D03*
D21*
X169545000Y-91440000D03*
X167005000Y-93980000D03*
X169545000Y-93980000D03*
X167005000Y-96520000D03*
X169545000Y-96520000D03*
D22*
X139750000Y-83750000D03*
X137750000Y-83750000D03*
D23*
X114935000Y-106299000D03*
X116205000Y-106299000D03*
X117475000Y-106299000D03*
X118745000Y-106299000D03*
X118745000Y-99949000D03*
X117475000Y-99949000D03*
X116205000Y-99949000D03*
X114935000Y-99949000D03*
X125349000Y-99949000D03*
X124079000Y-99949000D03*
X122809000Y-99949000D03*
X121539000Y-99949000D03*
X121539000Y-106299000D03*
X122809000Y-106299000D03*
X124079000Y-106299000D03*
X125349000Y-106299000D03*
D22*
X116856000Y-96520000D03*
X118856000Y-96520000D03*
X123500000Y-109000000D03*
X121500000Y-109000000D03*
D16*
X110550000Y-107000000D03*
X112450000Y-107000000D03*
X110550000Y-105000000D03*
X112450000Y-105000000D03*
D24*
X128000000Y-101050000D03*
X128000000Y-102950000D03*
X128000000Y-104550000D03*
X128000000Y-106450000D03*
D16*
X125918000Y-96520000D03*
X124018000Y-96520000D03*
X109450000Y-101500000D03*
X107550000Y-101500000D03*
X112950000Y-101500000D03*
X111050000Y-101500000D03*
D17*
X122174000Y-70866000D03*
X124714000Y-70866000D03*
X127254000Y-70866000D03*
X129794000Y-70866000D03*
X132334000Y-70866000D03*
X134874000Y-70866000D03*
X137414000Y-70866000D03*
X139954000Y-70866000D03*
X142494000Y-70866000D03*
X145034000Y-70866000D03*
X131318000Y-119126000D03*
X133858000Y-119126000D03*
X136398000Y-119126000D03*
X138938000Y-119126000D03*
X141478000Y-119126000D03*
X144018000Y-119126000D03*
X146558000Y-119126000D03*
X149098000Y-119126000D03*
D25*
X135378000Y-98666000D03*
D24*
X107000000Y-104550000D03*
X107000000Y-106450000D03*
D26*
X110236000Y-78740000D03*
X123952000Y-78740000D03*
D22*
X139750000Y-81750000D03*
X137750000Y-81750000D03*
X139750000Y-79750000D03*
X137750000Y-79750000D03*
X139750000Y-77750000D03*
X137750000Y-77750000D03*
X146000000Y-93500000D03*
X148000000Y-93500000D03*
X156500000Y-93500000D03*
X158500000Y-93500000D03*
X141000000Y-100500000D03*
X139000000Y-100500000D03*
X170028000Y-83666000D03*
X168028000Y-83666000D03*
X170000000Y-81750000D03*
X168000000Y-81750000D03*
X170000000Y-79750000D03*
X168000000Y-79750000D03*
X155000000Y-77750000D03*
X153000000Y-77750000D03*
X146000000Y-111000000D03*
X148000000Y-111000000D03*
X157000000Y-111000000D03*
X159000000Y-111000000D03*
X141000000Y-113500000D03*
X139000000Y-113500000D03*
X154978000Y-83716000D03*
X152978000Y-83716000D03*
X155000000Y-81750000D03*
X153000000Y-81750000D03*
X155000000Y-79750000D03*
X153000000Y-79750000D03*
X170000000Y-77750000D03*
X168000000Y-77750000D03*
X176000000Y-93500000D03*
X178000000Y-93500000D03*
X186500000Y-93500000D03*
X188500000Y-93500000D03*
X193000000Y-100416000D03*
X195000000Y-100416000D03*
X184750000Y-83750000D03*
X182750000Y-83750000D03*
X184750000Y-81750000D03*
X182750000Y-81750000D03*
X184750000Y-79750000D03*
X182750000Y-79750000D03*
X184750000Y-77750000D03*
X182750000Y-77750000D03*
X176000000Y-111000000D03*
X178000000Y-111000000D03*
X186500000Y-111000000D03*
X188500000Y-111000000D03*
X193000000Y-113000000D03*
X195000000Y-113000000D03*
D27*
X131378000Y-85116000D03*
X131378000Y-82216000D03*
D28*
X113128000Y-88516000D03*
X113128000Y-91316000D03*
X147600000Y-96000000D03*
X150400000Y-96000000D03*
X153600000Y-96000000D03*
X156400000Y-96000000D03*
D29*
X140878000Y-92716000D03*
X140878000Y-94616000D03*
X138878000Y-93666000D03*
X141000000Y-96550000D03*
X141000000Y-98450000D03*
X139000000Y-97500000D03*
D28*
X147600000Y-113500000D03*
X150400000Y-113500000D03*
X153500000Y-113500000D03*
X156300000Y-113500000D03*
D29*
X141000000Y-105600000D03*
X141000000Y-107500000D03*
X139000000Y-106550000D03*
X141000000Y-109600000D03*
X141000000Y-111500000D03*
X139000000Y-110550000D03*
D28*
X177600000Y-96000000D03*
X180400000Y-96000000D03*
X183600000Y-96000000D03*
X186400000Y-96000000D03*
D29*
X193128000Y-94616000D03*
X193128000Y-92716000D03*
X195128000Y-93666000D03*
X193000000Y-98450000D03*
X193000000Y-96550000D03*
X195000000Y-97500000D03*
D28*
X177600000Y-113500000D03*
X180400000Y-113500000D03*
X183700000Y-113500000D03*
X186500000Y-113500000D03*
D29*
X193000000Y-107450000D03*
X193000000Y-105550000D03*
X195000000Y-106500000D03*
X193000000Y-110950000D03*
X193000000Y-109050000D03*
X195000000Y-110000000D03*
D11*
X150232234Y-106232234D03*
X153767766Y-106232234D03*
X153767766Y-109767766D03*
X150232234Y-109767766D03*
D12*
X152000000Y-108000000D03*
D13*
X159500000Y-108000000D03*
X144500000Y-108000000D03*
D14*
X159500000Y-114500000D03*
X144500000Y-114500000D03*
D15*
X152000000Y-115700000D03*
D20*
X165000000Y-110500000D03*
D21*
X165000000Y-113040000D03*
X165000000Y-115580000D03*
D20*
X169000000Y-100500000D03*
D21*
X169000000Y-103040000D03*
X169000000Y-105580000D03*
D11*
X180232234Y-106232234D03*
X183767766Y-106232234D03*
X183767766Y-109767766D03*
X180232234Y-109767766D03*
D12*
X182000000Y-108000000D03*
D13*
X189500000Y-108000000D03*
X174500000Y-108000000D03*
D14*
X189500000Y-114500000D03*
X174500000Y-114500000D03*
D15*
X182000000Y-115700000D03*
D20*
X169000000Y-110500000D03*
D21*
X169000000Y-113040000D03*
X169000000Y-115580000D03*
D30*
X115928000Y-88416000D03*
X117828000Y-88416000D03*
X116878000Y-90416000D03*
X132328000Y-102916000D03*
X130428000Y-102916000D03*
X131378000Y-100916000D03*
D24*
X109878000Y-86466000D03*
X109878000Y-88366000D03*
X109878000Y-91616000D03*
X109878000Y-89716000D03*
D16*
X158400000Y-100500000D03*
X156500000Y-100500000D03*
X154900000Y-100500000D03*
X153000000Y-100500000D03*
X158400000Y-103000000D03*
X156500000Y-103000000D03*
X154900000Y-103000000D03*
X153000000Y-103000000D03*
D31*
X142550000Y-81750000D03*
D32*
X142550000Y-81250000D03*
X142550000Y-80750000D03*
X142550000Y-80250000D03*
X142550000Y-79750000D03*
D31*
X142550000Y-79250000D03*
D33*
X143250000Y-78550000D03*
D34*
X143750000Y-78550000D03*
X144250000Y-78550000D03*
X144750000Y-78550000D03*
X145250000Y-78550000D03*
D33*
X145750000Y-78550000D03*
D31*
X146450000Y-79250000D03*
D32*
X146450000Y-79750000D03*
X146450000Y-80250000D03*
X146450000Y-80750000D03*
X146450000Y-81250000D03*
D31*
X146450000Y-81750000D03*
D33*
X145750000Y-82450000D03*
D34*
X145250000Y-82450000D03*
X144750000Y-82450000D03*
X144250000Y-82450000D03*
X143750000Y-82450000D03*
D33*
X143250000Y-82450000D03*
D35*
X145150000Y-79850000D03*
X145150000Y-81150000D03*
X143850000Y-79850000D03*
X143850000Y-81150000D03*
D31*
X157550000Y-81750000D03*
D32*
X157550000Y-81250000D03*
X157550000Y-80750000D03*
X157550000Y-80250000D03*
X157550000Y-79750000D03*
D31*
X157550000Y-79250000D03*
D33*
X158250000Y-78550000D03*
D34*
X158750000Y-78550000D03*
X159250000Y-78550000D03*
X159750000Y-78550000D03*
X160250000Y-78550000D03*
D33*
X160750000Y-78550000D03*
D31*
X161450000Y-79250000D03*
D32*
X161450000Y-79750000D03*
X161450000Y-80250000D03*
X161450000Y-80750000D03*
X161450000Y-81250000D03*
D31*
X161450000Y-81750000D03*
D33*
X160750000Y-82450000D03*
D34*
X160250000Y-82450000D03*
X159750000Y-82450000D03*
X159250000Y-82450000D03*
X158750000Y-82450000D03*
D33*
X158250000Y-82450000D03*
D35*
X160150000Y-79850000D03*
X160150000Y-81150000D03*
X158850000Y-79850000D03*
X158850000Y-81150000D03*
D31*
X172550000Y-81650000D03*
D32*
X172550000Y-81150000D03*
X172550000Y-80650000D03*
X172550000Y-80150000D03*
X172550000Y-79650000D03*
D31*
X172550000Y-79150000D03*
D33*
X173250000Y-78450000D03*
D34*
X173750000Y-78450000D03*
X174250000Y-78450000D03*
X174750000Y-78450000D03*
X175250000Y-78450000D03*
D33*
X175750000Y-78450000D03*
D31*
X176450000Y-79150000D03*
D32*
X176450000Y-79650000D03*
X176450000Y-80150000D03*
X176450000Y-80650000D03*
X176450000Y-81150000D03*
D31*
X176450000Y-81650000D03*
D33*
X175750000Y-82350000D03*
D34*
X175250000Y-82350000D03*
X174750000Y-82350000D03*
X174250000Y-82350000D03*
X173750000Y-82350000D03*
D33*
X173250000Y-82350000D03*
D35*
X175150000Y-79750000D03*
X175150000Y-81050000D03*
X173850000Y-79750000D03*
X173850000Y-81050000D03*
D31*
X187550000Y-81750000D03*
D32*
X187550000Y-81250000D03*
X187550000Y-80750000D03*
X187550000Y-80250000D03*
X187550000Y-79750000D03*
D31*
X187550000Y-79250000D03*
D33*
X188250000Y-78550000D03*
D34*
X188750000Y-78550000D03*
X189250000Y-78550000D03*
X189750000Y-78550000D03*
X190250000Y-78550000D03*
D33*
X190750000Y-78550000D03*
D31*
X191450000Y-79250000D03*
D32*
X191450000Y-79750000D03*
X191450000Y-80250000D03*
X191450000Y-80750000D03*
X191450000Y-81250000D03*
D31*
X191450000Y-81750000D03*
D33*
X190750000Y-82450000D03*
D34*
X190250000Y-82450000D03*
X189750000Y-82450000D03*
X189250000Y-82450000D03*
X188750000Y-82450000D03*
D33*
X188250000Y-82450000D03*
D35*
X190150000Y-79850000D03*
X190150000Y-81150000D03*
X188850000Y-79850000D03*
X188850000Y-81150000D03*
D20*
X135378000Y-111876000D03*
D21*
X135378000Y-114416000D03*
D20*
X135378000Y-87126000D03*
D21*
X135378000Y-89666000D03*
M02*
