%FSLAX45Y45*%
G04 Gerber Fmt 4.5, Leading zero omitted, Abs format (unit mm)*
G04 Created by KiCad (PCBNEW 4.0.7) date 12/07/17 00:39:20*
%MOMM*%
%LPD*%
G01*
G04 APERTURE LIST*
%ADD10C,0.127000*%
%ADD11C,0.150000*%
%ADD12C,0.200000*%
%ADD13C,0.300000*%
G04 APERTURE END LIST*
D10*
D11*
X20243800Y-7086600D02*
X20243800Y-8102600D01*
X20497800Y-11785600D02*
X20243800Y-12039600D01*
X20497800Y-8356600D02*
X20497800Y-11785600D01*
X20243800Y-8102600D02*
X20497800Y-8356600D01*
X19989800Y-6832600D02*
X20243800Y-7086600D01*
X20243800Y-12039600D02*
X20243800Y-12166600D01*
X10337800Y-12166600D02*
X10337800Y-6832600D01*
X20243800Y-12166600D02*
X10337800Y-12166600D01*
X10337800Y-6832600D02*
X19989800Y-6832600D01*
D12*
X15135000Y-9755000D02*
X15265000Y-9885000D01*
X15265000Y-9755000D02*
X15135000Y-9885000D01*
X15135000Y-11505000D02*
X15265000Y-11635000D01*
X15265000Y-11505000D02*
X15135000Y-11635000D01*
X18135000Y-9755000D02*
X18265000Y-9885000D01*
X18265000Y-9755000D02*
X18135000Y-9885000D01*
X18135000Y-11505000D02*
X18265000Y-11635000D01*
X18265000Y-11505000D02*
X18135000Y-11635000D01*
X14572500Y-9700000D02*
G75*
G03X14572500Y-9700000I-122500J0D01*
G01*
X14572500Y-11450000D02*
G75*
G03X14572500Y-11450000I-122500J0D01*
G01*
X16072500Y-9700000D02*
G75*
G03X16072500Y-9700000I-122500J0D01*
G01*
X16072500Y-11450000D02*
G75*
G03X16072500Y-11450000I-122500J0D01*
G01*
X17572500Y-9700000D02*
G75*
G03X17572500Y-9700000I-122500J0D01*
G01*
X17572500Y-11450000D02*
G75*
G03X17572500Y-11450000I-122500J0D01*
G01*
X19072500Y-9700000D02*
G75*
G03X19072500Y-9700000I-122500J0D01*
G01*
X19072500Y-11450000D02*
G75*
G03X19072500Y-11450000I-122500J0D01*
G01*
X14450000Y-8910000D02*
X14450000Y-9190000D01*
X14310000Y-9050000D02*
X14590000Y-9050000D01*
X14450000Y-10660000D02*
X14450000Y-10940000D01*
X14310000Y-10800000D02*
X14590000Y-10800000D01*
X15950000Y-8910000D02*
X15950000Y-9190000D01*
X15810000Y-9050000D02*
X16090000Y-9050000D01*
X15950000Y-10660000D02*
X15950000Y-10940000D01*
X15810000Y-10800000D02*
X16090000Y-10800000D01*
X17450000Y-8910000D02*
X17450000Y-9190000D01*
X17310000Y-9050000D02*
X17590000Y-9050000D01*
X17450000Y-10660000D02*
X17450000Y-10940000D01*
X17310000Y-10800000D02*
X17590000Y-10800000D01*
X18950000Y-8910000D02*
X18950000Y-9190000D01*
X18810000Y-9050000D02*
X19090000Y-9050000D01*
X18950000Y-10660000D02*
X18950000Y-10940000D01*
X18810000Y-10800000D02*
X19090000Y-10800000D01*
D13*
X10601729Y-12639814D02*
X10601729Y-12339814D01*
X10673157Y-12339814D01*
X10716014Y-12354100D01*
X10744586Y-12382671D01*
X10758871Y-12411243D01*
X10773157Y-12468386D01*
X10773157Y-12511243D01*
X10758871Y-12568386D01*
X10744586Y-12596957D01*
X10716014Y-12625529D01*
X10673157Y-12639814D01*
X10601729Y-12639814D01*
X10901729Y-12639814D02*
X10901729Y-12439814D01*
X10901729Y-12496957D02*
X10916014Y-12468386D01*
X10930300Y-12454100D01*
X10958871Y-12439814D01*
X10987443Y-12439814D01*
X11087443Y-12639814D02*
X11087443Y-12439814D01*
X11087443Y-12339814D02*
X11073157Y-12354100D01*
X11087443Y-12368386D01*
X11101729Y-12354100D01*
X11087443Y-12339814D01*
X11087443Y-12368386D01*
X11273157Y-12639814D02*
X11244586Y-12625529D01*
X11230300Y-12596957D01*
X11230300Y-12339814D01*
X11430300Y-12639814D02*
X11401728Y-12625529D01*
X11387443Y-12596957D01*
X11387443Y-12339814D01*
X11773157Y-12639814D02*
X11773157Y-12339814D01*
X11873157Y-12554100D01*
X11973157Y-12339814D01*
X11973157Y-12639814D01*
X12244586Y-12639814D02*
X12244586Y-12482671D01*
X12230300Y-12454100D01*
X12201728Y-12439814D01*
X12144586Y-12439814D01*
X12116014Y-12454100D01*
X12244586Y-12625529D02*
X12216014Y-12639814D01*
X12144586Y-12639814D01*
X12116014Y-12625529D01*
X12101728Y-12596957D01*
X12101728Y-12568386D01*
X12116014Y-12539814D01*
X12144586Y-12525529D01*
X12216014Y-12525529D01*
X12244586Y-12511243D01*
X12387443Y-12439814D02*
X12387443Y-12739814D01*
X12387443Y-12454100D02*
X12416014Y-12439814D01*
X12473157Y-12439814D01*
X12501728Y-12454100D01*
X12516014Y-12468386D01*
X12530300Y-12496957D01*
X12530300Y-12582671D01*
X12516014Y-12611243D01*
X12501728Y-12625529D01*
X12473157Y-12639814D01*
X12416014Y-12639814D01*
X12387443Y-12625529D01*
X12658871Y-12611243D02*
X12673157Y-12625529D01*
X12658871Y-12639814D01*
X12644586Y-12625529D01*
X12658871Y-12611243D01*
X12658871Y-12639814D01*
X12658871Y-12454100D02*
X12673157Y-12468386D01*
X12658871Y-12482671D01*
X12644586Y-12468386D01*
X12658871Y-12454100D01*
X12658871Y-12482671D01*
X10200300Y-13069100D02*
X10330300Y-13199100D01*
X10330300Y-13069100D02*
X10200300Y-13199100D01*
X10758871Y-13269814D02*
X10587443Y-13269814D01*
X10673157Y-13269814D02*
X10673157Y-12969814D01*
X10644586Y-13012671D01*
X10616014Y-13041243D01*
X10587443Y-13055529D01*
X10887443Y-13241243D02*
X10901729Y-13255529D01*
X10887443Y-13269814D01*
X10873157Y-13255529D01*
X10887443Y-13241243D01*
X10887443Y-13269814D01*
X11001728Y-12969814D02*
X11187443Y-12969814D01*
X11087443Y-13084100D01*
X11130300Y-13084100D01*
X11158871Y-13098386D01*
X11173157Y-13112671D01*
X11187443Y-13141243D01*
X11187443Y-13212671D01*
X11173157Y-13241243D01*
X11158871Y-13255529D01*
X11130300Y-13269814D01*
X11044586Y-13269814D01*
X11016014Y-13255529D01*
X11001728Y-13241243D01*
X11373157Y-12969814D02*
X11401728Y-12969814D01*
X11430300Y-12984100D01*
X11444586Y-12998386D01*
X11458871Y-13026957D01*
X11473157Y-13084100D01*
X11473157Y-13155529D01*
X11458871Y-13212671D01*
X11444586Y-13241243D01*
X11430300Y-13255529D01*
X11401728Y-13269814D01*
X11373157Y-13269814D01*
X11344586Y-13255529D01*
X11330300Y-13241243D01*
X11316014Y-13212671D01*
X11301728Y-13155529D01*
X11301728Y-13084100D01*
X11316014Y-13026957D01*
X11330300Y-12998386D01*
X11344586Y-12984100D01*
X11373157Y-12969814D01*
X11601728Y-13269814D02*
X11601728Y-13069814D01*
X11601728Y-13098386D02*
X11616014Y-13084100D01*
X11644586Y-13069814D01*
X11687443Y-13069814D01*
X11716014Y-13084100D01*
X11730300Y-13112671D01*
X11730300Y-13269814D01*
X11730300Y-13112671D02*
X11744586Y-13084100D01*
X11773157Y-13069814D01*
X11816014Y-13069814D01*
X11844586Y-13084100D01*
X11858871Y-13112671D01*
X11858871Y-13269814D01*
X12001728Y-13269814D02*
X12001728Y-13069814D01*
X12001728Y-13098386D02*
X12016014Y-13084100D01*
X12044586Y-13069814D01*
X12087443Y-13069814D01*
X12116014Y-13084100D01*
X12130300Y-13112671D01*
X12130300Y-13269814D01*
X12130300Y-13112671D02*
X12144586Y-13084100D01*
X12173157Y-13069814D01*
X12216014Y-13069814D01*
X12244586Y-13084100D01*
X12258871Y-13112671D01*
X12258871Y-13269814D01*
X12844586Y-12955529D02*
X12587443Y-13341243D01*
X13230300Y-12969814D02*
X13258871Y-12969814D01*
X13287443Y-12984100D01*
X13301728Y-12998386D01*
X13316014Y-13026957D01*
X13330300Y-13084100D01*
X13330300Y-13155529D01*
X13316014Y-13212671D01*
X13301728Y-13241243D01*
X13287443Y-13255529D01*
X13258871Y-13269814D01*
X13230300Y-13269814D01*
X13201728Y-13255529D01*
X13187443Y-13241243D01*
X13173157Y-13212671D01*
X13158871Y-13155529D01*
X13158871Y-13084100D01*
X13173157Y-13026957D01*
X13187443Y-12998386D01*
X13201728Y-12984100D01*
X13230300Y-12969814D01*
X13458871Y-13241243D02*
X13473157Y-13255529D01*
X13458871Y-13269814D01*
X13444586Y-13255529D01*
X13458871Y-13241243D01*
X13458871Y-13269814D01*
X13658871Y-12969814D02*
X13687443Y-12969814D01*
X13716014Y-12984100D01*
X13730300Y-12998386D01*
X13744585Y-13026957D01*
X13758871Y-13084100D01*
X13758871Y-13155529D01*
X13744585Y-13212671D01*
X13730300Y-13241243D01*
X13716014Y-13255529D01*
X13687443Y-13269814D01*
X13658871Y-13269814D01*
X13630300Y-13255529D01*
X13616014Y-13241243D01*
X13601728Y-13212671D01*
X13587443Y-13155529D01*
X13587443Y-13084100D01*
X13601728Y-13026957D01*
X13616014Y-12998386D01*
X13630300Y-12984100D01*
X13658871Y-12969814D01*
X14030300Y-12969814D02*
X13887443Y-12969814D01*
X13873157Y-13112671D01*
X13887443Y-13098386D01*
X13916014Y-13084100D01*
X13987443Y-13084100D01*
X14016014Y-13098386D01*
X14030300Y-13112671D01*
X14044585Y-13141243D01*
X14044585Y-13212671D01*
X14030300Y-13241243D01*
X14016014Y-13255529D01*
X13987443Y-13269814D01*
X13916014Y-13269814D01*
X13887443Y-13255529D01*
X13873157Y-13241243D01*
X14330300Y-13269814D02*
X14158871Y-13269814D01*
X14244585Y-13269814D02*
X14244585Y-12969814D01*
X14216014Y-13012671D01*
X14187443Y-13041243D01*
X14158871Y-13055529D01*
X14444586Y-12969814D02*
X14444586Y-13026957D01*
X14558871Y-12969814D02*
X14558871Y-13026957D01*
X15001728Y-13384100D02*
X14987443Y-13369814D01*
X14958871Y-13326957D01*
X14944585Y-13298386D01*
X14930300Y-13255529D01*
X14916014Y-13184100D01*
X14916014Y-13126957D01*
X14930300Y-13055529D01*
X14944585Y-13012671D01*
X14958871Y-12984100D01*
X14987443Y-12941243D01*
X15001728Y-12926957D01*
X15244585Y-13069814D02*
X15244585Y-13269814D01*
X15173157Y-12955529D02*
X15101728Y-13169814D01*
X15287443Y-13169814D01*
X15630300Y-13269814D02*
X15630300Y-12969814D01*
X15758871Y-13269814D02*
X15758871Y-13112671D01*
X15744585Y-13084100D01*
X15716014Y-13069814D01*
X15673157Y-13069814D01*
X15644585Y-13084100D01*
X15630300Y-13098386D01*
X15944585Y-13269814D02*
X15916014Y-13255529D01*
X15901728Y-13241243D01*
X15887443Y-13212671D01*
X15887443Y-13126957D01*
X15901728Y-13098386D01*
X15916014Y-13084100D01*
X15944585Y-13069814D01*
X15987443Y-13069814D01*
X16016014Y-13084100D01*
X16030300Y-13098386D01*
X16044585Y-13126957D01*
X16044585Y-13212671D01*
X16030300Y-13241243D01*
X16016014Y-13255529D01*
X15987443Y-13269814D01*
X15944585Y-13269814D01*
X16216014Y-13269814D02*
X16187443Y-13255529D01*
X16173157Y-13226957D01*
X16173157Y-12969814D01*
X16444586Y-13255529D02*
X16416014Y-13269814D01*
X16358871Y-13269814D01*
X16330300Y-13255529D01*
X16316014Y-13226957D01*
X16316014Y-13112671D01*
X16330300Y-13084100D01*
X16358871Y-13069814D01*
X16416014Y-13069814D01*
X16444586Y-13084100D01*
X16458871Y-13112671D01*
X16458871Y-13141243D01*
X16316014Y-13169814D01*
X16573157Y-13255529D02*
X16601728Y-13269814D01*
X16658871Y-13269814D01*
X16687443Y-13255529D01*
X16701728Y-13226957D01*
X16701728Y-13212671D01*
X16687443Y-13184100D01*
X16658871Y-13169814D01*
X16616014Y-13169814D01*
X16587443Y-13155529D01*
X16573157Y-13126957D01*
X16573157Y-13112671D01*
X16587443Y-13084100D01*
X16616014Y-13069814D01*
X16658871Y-13069814D01*
X16687443Y-13084100D01*
X16801728Y-13384100D02*
X16816014Y-13369814D01*
X16844586Y-13326957D01*
X16858871Y-13298386D01*
X16873157Y-13255529D01*
X16887443Y-13184100D01*
X16887443Y-13126957D01*
X16873157Y-13055529D01*
X16858871Y-13012671D01*
X16844586Y-12984100D01*
X16816014Y-12941243D01*
X16801728Y-12926957D01*
X17344586Y-13384100D02*
X17330300Y-13369814D01*
X17301728Y-13326957D01*
X17287443Y-13298386D01*
X17273157Y-13255529D01*
X17258871Y-13184100D01*
X17258871Y-13126957D01*
X17273157Y-13055529D01*
X17287443Y-13012671D01*
X17301728Y-12984100D01*
X17330300Y-12941243D01*
X17344586Y-12926957D01*
X17458871Y-13069814D02*
X17458871Y-13269814D01*
X17458871Y-13098386D02*
X17473157Y-13084100D01*
X17501728Y-13069814D01*
X17544586Y-13069814D01*
X17573157Y-13084100D01*
X17587443Y-13112671D01*
X17587443Y-13269814D01*
X17773157Y-13269814D02*
X17744586Y-13255529D01*
X17730300Y-13241243D01*
X17716014Y-13212671D01*
X17716014Y-13126957D01*
X17730300Y-13098386D01*
X17744586Y-13084100D01*
X17773157Y-13069814D01*
X17816014Y-13069814D01*
X17844586Y-13084100D01*
X17858871Y-13098386D01*
X17873157Y-13126957D01*
X17873157Y-13212671D01*
X17858871Y-13241243D01*
X17844586Y-13255529D01*
X17816014Y-13269814D01*
X17773157Y-13269814D01*
X17958871Y-13069814D02*
X18073157Y-13069814D01*
X18001729Y-12969814D02*
X18001729Y-13226957D01*
X18016014Y-13255529D01*
X18044586Y-13269814D01*
X18073157Y-13269814D01*
X18401729Y-13069814D02*
X18401729Y-13369814D01*
X18401729Y-13084100D02*
X18430300Y-13069814D01*
X18487443Y-13069814D01*
X18516014Y-13084100D01*
X18530300Y-13098386D01*
X18544586Y-13126957D01*
X18544586Y-13212671D01*
X18530300Y-13241243D01*
X18516014Y-13255529D01*
X18487443Y-13269814D01*
X18430300Y-13269814D01*
X18401729Y-13255529D01*
X18716014Y-13269814D02*
X18687443Y-13255529D01*
X18673157Y-13226957D01*
X18673157Y-12969814D01*
X18958871Y-13269814D02*
X18958871Y-13112671D01*
X18944586Y-13084100D01*
X18916014Y-13069814D01*
X18858871Y-13069814D01*
X18830300Y-13084100D01*
X18958871Y-13255529D02*
X18930300Y-13269814D01*
X18858871Y-13269814D01*
X18830300Y-13255529D01*
X18816014Y-13226957D01*
X18816014Y-13198386D01*
X18830300Y-13169814D01*
X18858871Y-13155529D01*
X18930300Y-13155529D01*
X18958871Y-13141243D01*
X19058871Y-13069814D02*
X19173157Y-13069814D01*
X19101729Y-12969814D02*
X19101729Y-13226957D01*
X19116014Y-13255529D01*
X19144586Y-13269814D01*
X19173157Y-13269814D01*
X19387443Y-13255529D02*
X19358872Y-13269814D01*
X19301729Y-13269814D01*
X19273157Y-13255529D01*
X19258872Y-13226957D01*
X19258872Y-13112671D01*
X19273157Y-13084100D01*
X19301729Y-13069814D01*
X19358872Y-13069814D01*
X19387443Y-13084100D01*
X19401729Y-13112671D01*
X19401729Y-13141243D01*
X19258872Y-13169814D01*
X19658872Y-13269814D02*
X19658872Y-12969814D01*
X19658872Y-13255529D02*
X19630300Y-13269814D01*
X19573157Y-13269814D01*
X19544586Y-13255529D01*
X19530300Y-13241243D01*
X19516014Y-13212671D01*
X19516014Y-13126957D01*
X19530300Y-13098386D01*
X19544586Y-13084100D01*
X19573157Y-13069814D01*
X19630300Y-13069814D01*
X19658872Y-13084100D01*
X19773157Y-13384100D02*
X19787443Y-13369814D01*
X19816014Y-13326957D01*
X19830300Y-13298386D01*
X19844586Y-13255529D01*
X19858872Y-13184100D01*
X19858872Y-13126957D01*
X19844586Y-13055529D01*
X19830300Y-13012671D01*
X19816014Y-12984100D01*
X19787443Y-12941243D01*
X19773157Y-12926957D01*
X10330300Y-13530100D02*
G75*
G03X10330300Y-13530100I-122500J0D01*
G01*
X10587443Y-13394386D02*
X10601729Y-13380100D01*
X10630300Y-13365814D01*
X10701729Y-13365814D01*
X10730300Y-13380100D01*
X10744586Y-13394386D01*
X10758871Y-13422957D01*
X10758871Y-13451529D01*
X10744586Y-13494386D01*
X10573157Y-13665814D01*
X10758871Y-13665814D01*
X10887443Y-13637243D02*
X10901729Y-13651529D01*
X10887443Y-13665814D01*
X10873157Y-13651529D01*
X10887443Y-13637243D01*
X10887443Y-13665814D01*
X11158871Y-13465814D02*
X11158871Y-13665814D01*
X11087443Y-13351529D02*
X11016014Y-13565814D01*
X11201728Y-13565814D01*
X11458871Y-13365814D02*
X11316014Y-13365814D01*
X11301728Y-13508671D01*
X11316014Y-13494386D01*
X11344586Y-13480100D01*
X11416014Y-13480100D01*
X11444586Y-13494386D01*
X11458871Y-13508671D01*
X11473157Y-13537243D01*
X11473157Y-13608671D01*
X11458871Y-13637243D01*
X11444586Y-13651529D01*
X11416014Y-13665814D01*
X11344586Y-13665814D01*
X11316014Y-13651529D01*
X11301728Y-13637243D01*
X11601728Y-13665814D02*
X11601728Y-13465814D01*
X11601728Y-13494386D02*
X11616014Y-13480100D01*
X11644586Y-13465814D01*
X11687443Y-13465814D01*
X11716014Y-13480100D01*
X11730300Y-13508671D01*
X11730300Y-13665814D01*
X11730300Y-13508671D02*
X11744586Y-13480100D01*
X11773157Y-13465814D01*
X11816014Y-13465814D01*
X11844586Y-13480100D01*
X11858871Y-13508671D01*
X11858871Y-13665814D01*
X12001728Y-13665814D02*
X12001728Y-13465814D01*
X12001728Y-13494386D02*
X12016014Y-13480100D01*
X12044586Y-13465814D01*
X12087443Y-13465814D01*
X12116014Y-13480100D01*
X12130300Y-13508671D01*
X12130300Y-13665814D01*
X12130300Y-13508671D02*
X12144586Y-13480100D01*
X12173157Y-13465814D01*
X12216014Y-13465814D01*
X12244586Y-13480100D01*
X12258871Y-13508671D01*
X12258871Y-13665814D01*
X12844586Y-13351529D02*
X12587443Y-13737243D01*
X13230300Y-13365814D02*
X13258871Y-13365814D01*
X13287443Y-13380100D01*
X13301728Y-13394386D01*
X13316014Y-13422957D01*
X13330300Y-13480100D01*
X13330300Y-13551529D01*
X13316014Y-13608671D01*
X13301728Y-13637243D01*
X13287443Y-13651529D01*
X13258871Y-13665814D01*
X13230300Y-13665814D01*
X13201728Y-13651529D01*
X13187443Y-13637243D01*
X13173157Y-13608671D01*
X13158871Y-13551529D01*
X13158871Y-13480100D01*
X13173157Y-13422957D01*
X13187443Y-13394386D01*
X13201728Y-13380100D01*
X13230300Y-13365814D01*
X13458871Y-13637243D02*
X13473157Y-13651529D01*
X13458871Y-13665814D01*
X13444586Y-13651529D01*
X13458871Y-13637243D01*
X13458871Y-13665814D01*
X13658871Y-13365814D02*
X13687443Y-13365814D01*
X13716014Y-13380100D01*
X13730300Y-13394386D01*
X13744585Y-13422957D01*
X13758871Y-13480100D01*
X13758871Y-13551529D01*
X13744585Y-13608671D01*
X13730300Y-13637243D01*
X13716014Y-13651529D01*
X13687443Y-13665814D01*
X13658871Y-13665814D01*
X13630300Y-13651529D01*
X13616014Y-13637243D01*
X13601728Y-13608671D01*
X13587443Y-13551529D01*
X13587443Y-13480100D01*
X13601728Y-13422957D01*
X13616014Y-13394386D01*
X13630300Y-13380100D01*
X13658871Y-13365814D01*
X13901728Y-13665814D02*
X13958871Y-13665814D01*
X13987443Y-13651529D01*
X14001728Y-13637243D01*
X14030300Y-13594386D01*
X14044585Y-13537243D01*
X14044585Y-13422957D01*
X14030300Y-13394386D01*
X14016014Y-13380100D01*
X13987443Y-13365814D01*
X13930300Y-13365814D01*
X13901728Y-13380100D01*
X13887443Y-13394386D01*
X13873157Y-13422957D01*
X13873157Y-13494386D01*
X13887443Y-13522957D01*
X13901728Y-13537243D01*
X13930300Y-13551529D01*
X13987443Y-13551529D01*
X14016014Y-13537243D01*
X14030300Y-13522957D01*
X14044585Y-13494386D01*
X14301728Y-13365814D02*
X14244585Y-13365814D01*
X14216014Y-13380100D01*
X14201728Y-13394386D01*
X14173157Y-13437243D01*
X14158871Y-13494386D01*
X14158871Y-13608671D01*
X14173157Y-13637243D01*
X14187443Y-13651529D01*
X14216014Y-13665814D01*
X14273157Y-13665814D01*
X14301728Y-13651529D01*
X14316014Y-13637243D01*
X14330300Y-13608671D01*
X14330300Y-13537243D01*
X14316014Y-13508671D01*
X14301728Y-13494386D01*
X14273157Y-13480100D01*
X14216014Y-13480100D01*
X14187443Y-13494386D01*
X14173157Y-13508671D01*
X14158871Y-13537243D01*
X14444586Y-13365814D02*
X14444586Y-13422957D01*
X14558871Y-13365814D02*
X14558871Y-13422957D01*
X15001728Y-13780100D02*
X14987443Y-13765814D01*
X14958871Y-13722957D01*
X14944585Y-13694386D01*
X14930300Y-13651529D01*
X14916014Y-13580100D01*
X14916014Y-13522957D01*
X14930300Y-13451529D01*
X14944585Y-13408671D01*
X14958871Y-13380100D01*
X14987443Y-13337243D01*
X15001728Y-13322957D01*
X15158871Y-13494386D02*
X15130300Y-13480100D01*
X15116014Y-13465814D01*
X15101728Y-13437243D01*
X15101728Y-13422957D01*
X15116014Y-13394386D01*
X15130300Y-13380100D01*
X15158871Y-13365814D01*
X15216014Y-13365814D01*
X15244585Y-13380100D01*
X15258871Y-13394386D01*
X15273157Y-13422957D01*
X15273157Y-13437243D01*
X15258871Y-13465814D01*
X15244585Y-13480100D01*
X15216014Y-13494386D01*
X15158871Y-13494386D01*
X15130300Y-13508671D01*
X15116014Y-13522957D01*
X15101728Y-13551529D01*
X15101728Y-13608671D01*
X15116014Y-13637243D01*
X15130300Y-13651529D01*
X15158871Y-13665814D01*
X15216014Y-13665814D01*
X15244585Y-13651529D01*
X15258871Y-13637243D01*
X15273157Y-13608671D01*
X15273157Y-13551529D01*
X15258871Y-13522957D01*
X15244585Y-13508671D01*
X15216014Y-13494386D01*
X15630300Y-13665814D02*
X15630300Y-13365814D01*
X15758871Y-13665814D02*
X15758871Y-13508671D01*
X15744585Y-13480100D01*
X15716014Y-13465814D01*
X15673157Y-13465814D01*
X15644585Y-13480100D01*
X15630300Y-13494386D01*
X15944585Y-13665814D02*
X15916014Y-13651529D01*
X15901728Y-13637243D01*
X15887443Y-13608671D01*
X15887443Y-13522957D01*
X15901728Y-13494386D01*
X15916014Y-13480100D01*
X15944585Y-13465814D01*
X15987443Y-13465814D01*
X16016014Y-13480100D01*
X16030300Y-13494386D01*
X16044585Y-13522957D01*
X16044585Y-13608671D01*
X16030300Y-13637243D01*
X16016014Y-13651529D01*
X15987443Y-13665814D01*
X15944585Y-13665814D01*
X16216014Y-13665814D02*
X16187443Y-13651529D01*
X16173157Y-13622957D01*
X16173157Y-13365814D01*
X16444586Y-13651529D02*
X16416014Y-13665814D01*
X16358871Y-13665814D01*
X16330300Y-13651529D01*
X16316014Y-13622957D01*
X16316014Y-13508671D01*
X16330300Y-13480100D01*
X16358871Y-13465814D01*
X16416014Y-13465814D01*
X16444586Y-13480100D01*
X16458871Y-13508671D01*
X16458871Y-13537243D01*
X16316014Y-13565814D01*
X16573157Y-13651529D02*
X16601728Y-13665814D01*
X16658871Y-13665814D01*
X16687443Y-13651529D01*
X16701728Y-13622957D01*
X16701728Y-13608671D01*
X16687443Y-13580100D01*
X16658871Y-13565814D01*
X16616014Y-13565814D01*
X16587443Y-13551529D01*
X16573157Y-13522957D01*
X16573157Y-13508671D01*
X16587443Y-13480100D01*
X16616014Y-13465814D01*
X16658871Y-13465814D01*
X16687443Y-13480100D01*
X16801728Y-13780100D02*
X16816014Y-13765814D01*
X16844586Y-13722957D01*
X16858871Y-13694386D01*
X16873157Y-13651529D01*
X16887443Y-13580100D01*
X16887443Y-13522957D01*
X16873157Y-13451529D01*
X16858871Y-13408671D01*
X16844586Y-13380100D01*
X16816014Y-13337243D01*
X16801728Y-13322957D01*
X17344586Y-13780100D02*
X17330300Y-13765814D01*
X17301728Y-13722957D01*
X17287443Y-13694386D01*
X17273157Y-13651529D01*
X17258871Y-13580100D01*
X17258871Y-13522957D01*
X17273157Y-13451529D01*
X17287443Y-13408671D01*
X17301728Y-13380100D01*
X17330300Y-13337243D01*
X17344586Y-13322957D01*
X17458871Y-13465814D02*
X17458871Y-13665814D01*
X17458871Y-13494386D02*
X17473157Y-13480100D01*
X17501728Y-13465814D01*
X17544586Y-13465814D01*
X17573157Y-13480100D01*
X17587443Y-13508671D01*
X17587443Y-13665814D01*
X17773157Y-13665814D02*
X17744586Y-13651529D01*
X17730300Y-13637243D01*
X17716014Y-13608671D01*
X17716014Y-13522957D01*
X17730300Y-13494386D01*
X17744586Y-13480100D01*
X17773157Y-13465814D01*
X17816014Y-13465814D01*
X17844586Y-13480100D01*
X17858871Y-13494386D01*
X17873157Y-13522957D01*
X17873157Y-13608671D01*
X17858871Y-13637243D01*
X17844586Y-13651529D01*
X17816014Y-13665814D01*
X17773157Y-13665814D01*
X17958871Y-13465814D02*
X18073157Y-13465814D01*
X18001729Y-13365814D02*
X18001729Y-13622957D01*
X18016014Y-13651529D01*
X18044586Y-13665814D01*
X18073157Y-13665814D01*
X18401729Y-13465814D02*
X18401729Y-13765814D01*
X18401729Y-13480100D02*
X18430300Y-13465814D01*
X18487443Y-13465814D01*
X18516014Y-13480100D01*
X18530300Y-13494386D01*
X18544586Y-13522957D01*
X18544586Y-13608671D01*
X18530300Y-13637243D01*
X18516014Y-13651529D01*
X18487443Y-13665814D01*
X18430300Y-13665814D01*
X18401729Y-13651529D01*
X18716014Y-13665814D02*
X18687443Y-13651529D01*
X18673157Y-13622957D01*
X18673157Y-13365814D01*
X18958871Y-13665814D02*
X18958871Y-13508671D01*
X18944586Y-13480100D01*
X18916014Y-13465814D01*
X18858871Y-13465814D01*
X18830300Y-13480100D01*
X18958871Y-13651529D02*
X18930300Y-13665814D01*
X18858871Y-13665814D01*
X18830300Y-13651529D01*
X18816014Y-13622957D01*
X18816014Y-13594386D01*
X18830300Y-13565814D01*
X18858871Y-13551529D01*
X18930300Y-13551529D01*
X18958871Y-13537243D01*
X19058871Y-13465814D02*
X19173157Y-13465814D01*
X19101729Y-13365814D02*
X19101729Y-13622957D01*
X19116014Y-13651529D01*
X19144586Y-13665814D01*
X19173157Y-13665814D01*
X19387443Y-13651529D02*
X19358872Y-13665814D01*
X19301729Y-13665814D01*
X19273157Y-13651529D01*
X19258872Y-13622957D01*
X19258872Y-13508671D01*
X19273157Y-13480100D01*
X19301729Y-13465814D01*
X19358872Y-13465814D01*
X19387443Y-13480100D01*
X19401729Y-13508671D01*
X19401729Y-13537243D01*
X19258872Y-13565814D01*
X19658872Y-13665814D02*
X19658872Y-13365814D01*
X19658872Y-13651529D02*
X19630300Y-13665814D01*
X19573157Y-13665814D01*
X19544586Y-13651529D01*
X19530300Y-13637243D01*
X19516014Y-13608671D01*
X19516014Y-13522957D01*
X19530300Y-13494386D01*
X19544586Y-13480100D01*
X19573157Y-13465814D01*
X19630300Y-13465814D01*
X19658872Y-13480100D01*
X19773157Y-13780100D02*
X19787443Y-13765814D01*
X19816014Y-13722957D01*
X19830300Y-13694386D01*
X19844586Y-13651529D01*
X19858872Y-13580100D01*
X19858872Y-13522957D01*
X19844586Y-13451529D01*
X19830300Y-13408671D01*
X19816014Y-13380100D01*
X19787443Y-13337243D01*
X19773157Y-13322957D01*
X10190300Y-13786100D02*
X10190300Y-14066100D01*
X10050300Y-13926100D02*
X10330300Y-13926100D01*
X10587443Y-13790386D02*
X10601729Y-13776100D01*
X10630300Y-13761814D01*
X10701729Y-13761814D01*
X10730300Y-13776100D01*
X10744586Y-13790386D01*
X10758871Y-13818957D01*
X10758871Y-13847529D01*
X10744586Y-13890386D01*
X10573157Y-14061814D01*
X10758871Y-14061814D01*
X10887443Y-14033243D02*
X10901729Y-14047529D01*
X10887443Y-14061814D01*
X10873157Y-14047529D01*
X10887443Y-14033243D01*
X10887443Y-14061814D01*
X11073157Y-13890386D02*
X11044586Y-13876100D01*
X11030300Y-13861814D01*
X11016014Y-13833243D01*
X11016014Y-13818957D01*
X11030300Y-13790386D01*
X11044586Y-13776100D01*
X11073157Y-13761814D01*
X11130300Y-13761814D01*
X11158871Y-13776100D01*
X11173157Y-13790386D01*
X11187443Y-13818957D01*
X11187443Y-13833243D01*
X11173157Y-13861814D01*
X11158871Y-13876100D01*
X11130300Y-13890386D01*
X11073157Y-13890386D01*
X11044586Y-13904671D01*
X11030300Y-13918957D01*
X11016014Y-13947529D01*
X11016014Y-14004671D01*
X11030300Y-14033243D01*
X11044586Y-14047529D01*
X11073157Y-14061814D01*
X11130300Y-14061814D01*
X11158871Y-14047529D01*
X11173157Y-14033243D01*
X11187443Y-14004671D01*
X11187443Y-13947529D01*
X11173157Y-13918957D01*
X11158871Y-13904671D01*
X11130300Y-13890386D01*
X11373157Y-13761814D02*
X11401728Y-13761814D01*
X11430300Y-13776100D01*
X11444586Y-13790386D01*
X11458871Y-13818957D01*
X11473157Y-13876100D01*
X11473157Y-13947529D01*
X11458871Y-14004671D01*
X11444586Y-14033243D01*
X11430300Y-14047529D01*
X11401728Y-14061814D01*
X11373157Y-14061814D01*
X11344586Y-14047529D01*
X11330300Y-14033243D01*
X11316014Y-14004671D01*
X11301728Y-13947529D01*
X11301728Y-13876100D01*
X11316014Y-13818957D01*
X11330300Y-13790386D01*
X11344586Y-13776100D01*
X11373157Y-13761814D01*
X11601728Y-14061814D02*
X11601728Y-13861814D01*
X11601728Y-13890386D02*
X11616014Y-13876100D01*
X11644586Y-13861814D01*
X11687443Y-13861814D01*
X11716014Y-13876100D01*
X11730300Y-13904671D01*
X11730300Y-14061814D01*
X11730300Y-13904671D02*
X11744586Y-13876100D01*
X11773157Y-13861814D01*
X11816014Y-13861814D01*
X11844586Y-13876100D01*
X11858871Y-13904671D01*
X11858871Y-14061814D01*
X12001728Y-14061814D02*
X12001728Y-13861814D01*
X12001728Y-13890386D02*
X12016014Y-13876100D01*
X12044586Y-13861814D01*
X12087443Y-13861814D01*
X12116014Y-13876100D01*
X12130300Y-13904671D01*
X12130300Y-14061814D01*
X12130300Y-13904671D02*
X12144586Y-13876100D01*
X12173157Y-13861814D01*
X12216014Y-13861814D01*
X12244586Y-13876100D01*
X12258871Y-13904671D01*
X12258871Y-14061814D01*
X12844586Y-13747529D02*
X12587443Y-14133243D01*
X13230300Y-13761814D02*
X13258871Y-13761814D01*
X13287443Y-13776100D01*
X13301728Y-13790386D01*
X13316014Y-13818957D01*
X13330300Y-13876100D01*
X13330300Y-13947529D01*
X13316014Y-14004671D01*
X13301728Y-14033243D01*
X13287443Y-14047529D01*
X13258871Y-14061814D01*
X13230300Y-14061814D01*
X13201728Y-14047529D01*
X13187443Y-14033243D01*
X13173157Y-14004671D01*
X13158871Y-13947529D01*
X13158871Y-13876100D01*
X13173157Y-13818957D01*
X13187443Y-13790386D01*
X13201728Y-13776100D01*
X13230300Y-13761814D01*
X13458871Y-14033243D02*
X13473157Y-14047529D01*
X13458871Y-14061814D01*
X13444586Y-14047529D01*
X13458871Y-14033243D01*
X13458871Y-14061814D01*
X13758871Y-14061814D02*
X13587443Y-14061814D01*
X13673157Y-14061814D02*
X13673157Y-13761814D01*
X13644585Y-13804671D01*
X13616014Y-13833243D01*
X13587443Y-13847529D01*
X14044585Y-14061814D02*
X13873157Y-14061814D01*
X13958871Y-14061814D02*
X13958871Y-13761814D01*
X13930300Y-13804671D01*
X13901728Y-13833243D01*
X13873157Y-13847529D01*
X14230300Y-13761814D02*
X14258871Y-13761814D01*
X14287443Y-13776100D01*
X14301728Y-13790386D01*
X14316014Y-13818957D01*
X14330300Y-13876100D01*
X14330300Y-13947529D01*
X14316014Y-14004671D01*
X14301728Y-14033243D01*
X14287443Y-14047529D01*
X14258871Y-14061814D01*
X14230300Y-14061814D01*
X14201728Y-14047529D01*
X14187443Y-14033243D01*
X14173157Y-14004671D01*
X14158871Y-13947529D01*
X14158871Y-13876100D01*
X14173157Y-13818957D01*
X14187443Y-13790386D01*
X14201728Y-13776100D01*
X14230300Y-13761814D01*
X14444586Y-13761814D02*
X14444586Y-13818957D01*
X14558871Y-13761814D02*
X14558871Y-13818957D01*
X15001728Y-14176100D02*
X14987443Y-14161814D01*
X14958871Y-14118957D01*
X14944585Y-14090386D01*
X14930300Y-14047529D01*
X14916014Y-13976100D01*
X14916014Y-13918957D01*
X14930300Y-13847529D01*
X14944585Y-13804671D01*
X14958871Y-13776100D01*
X14987443Y-13733243D01*
X15001728Y-13718957D01*
X15158871Y-13890386D02*
X15130300Y-13876100D01*
X15116014Y-13861814D01*
X15101728Y-13833243D01*
X15101728Y-13818957D01*
X15116014Y-13790386D01*
X15130300Y-13776100D01*
X15158871Y-13761814D01*
X15216014Y-13761814D01*
X15244585Y-13776100D01*
X15258871Y-13790386D01*
X15273157Y-13818957D01*
X15273157Y-13833243D01*
X15258871Y-13861814D01*
X15244585Y-13876100D01*
X15216014Y-13890386D01*
X15158871Y-13890386D01*
X15130300Y-13904671D01*
X15116014Y-13918957D01*
X15101728Y-13947529D01*
X15101728Y-14004671D01*
X15116014Y-14033243D01*
X15130300Y-14047529D01*
X15158871Y-14061814D01*
X15216014Y-14061814D01*
X15244585Y-14047529D01*
X15258871Y-14033243D01*
X15273157Y-14004671D01*
X15273157Y-13947529D01*
X15258871Y-13918957D01*
X15244585Y-13904671D01*
X15216014Y-13890386D01*
X15630300Y-14061814D02*
X15630300Y-13761814D01*
X15758871Y-14061814D02*
X15758871Y-13904671D01*
X15744585Y-13876100D01*
X15716014Y-13861814D01*
X15673157Y-13861814D01*
X15644585Y-13876100D01*
X15630300Y-13890386D01*
X15944585Y-14061814D02*
X15916014Y-14047529D01*
X15901728Y-14033243D01*
X15887443Y-14004671D01*
X15887443Y-13918957D01*
X15901728Y-13890386D01*
X15916014Y-13876100D01*
X15944585Y-13861814D01*
X15987443Y-13861814D01*
X16016014Y-13876100D01*
X16030300Y-13890386D01*
X16044585Y-13918957D01*
X16044585Y-14004671D01*
X16030300Y-14033243D01*
X16016014Y-14047529D01*
X15987443Y-14061814D01*
X15944585Y-14061814D01*
X16216014Y-14061814D02*
X16187443Y-14047529D01*
X16173157Y-14018957D01*
X16173157Y-13761814D01*
X16444586Y-14047529D02*
X16416014Y-14061814D01*
X16358871Y-14061814D01*
X16330300Y-14047529D01*
X16316014Y-14018957D01*
X16316014Y-13904671D01*
X16330300Y-13876100D01*
X16358871Y-13861814D01*
X16416014Y-13861814D01*
X16444586Y-13876100D01*
X16458871Y-13904671D01*
X16458871Y-13933243D01*
X16316014Y-13961814D01*
X16573157Y-14047529D02*
X16601728Y-14061814D01*
X16658871Y-14061814D01*
X16687443Y-14047529D01*
X16701728Y-14018957D01*
X16701728Y-14004671D01*
X16687443Y-13976100D01*
X16658871Y-13961814D01*
X16616014Y-13961814D01*
X16587443Y-13947529D01*
X16573157Y-13918957D01*
X16573157Y-13904671D01*
X16587443Y-13876100D01*
X16616014Y-13861814D01*
X16658871Y-13861814D01*
X16687443Y-13876100D01*
X16801728Y-14176100D02*
X16816014Y-14161814D01*
X16844586Y-14118957D01*
X16858871Y-14090386D01*
X16873157Y-14047529D01*
X16887443Y-13976100D01*
X16887443Y-13918957D01*
X16873157Y-13847529D01*
X16858871Y-13804671D01*
X16844586Y-13776100D01*
X16816014Y-13733243D01*
X16801728Y-13718957D01*
X17344586Y-14176100D02*
X17330300Y-14161814D01*
X17301728Y-14118957D01*
X17287443Y-14090386D01*
X17273157Y-14047529D01*
X17258871Y-13976100D01*
X17258871Y-13918957D01*
X17273157Y-13847529D01*
X17287443Y-13804671D01*
X17301728Y-13776100D01*
X17330300Y-13733243D01*
X17344586Y-13718957D01*
X17458871Y-13861814D02*
X17458871Y-14061814D01*
X17458871Y-13890386D02*
X17473157Y-13876100D01*
X17501728Y-13861814D01*
X17544586Y-13861814D01*
X17573157Y-13876100D01*
X17587443Y-13904671D01*
X17587443Y-14061814D01*
X17773157Y-14061814D02*
X17744586Y-14047529D01*
X17730300Y-14033243D01*
X17716014Y-14004671D01*
X17716014Y-13918957D01*
X17730300Y-13890386D01*
X17744586Y-13876100D01*
X17773157Y-13861814D01*
X17816014Y-13861814D01*
X17844586Y-13876100D01*
X17858871Y-13890386D01*
X17873157Y-13918957D01*
X17873157Y-14004671D01*
X17858871Y-14033243D01*
X17844586Y-14047529D01*
X17816014Y-14061814D01*
X17773157Y-14061814D01*
X17958871Y-13861814D02*
X18073157Y-13861814D01*
X18001729Y-13761814D02*
X18001729Y-14018957D01*
X18016014Y-14047529D01*
X18044586Y-14061814D01*
X18073157Y-14061814D01*
X18401729Y-13861814D02*
X18401729Y-14161814D01*
X18401729Y-13876100D02*
X18430300Y-13861814D01*
X18487443Y-13861814D01*
X18516014Y-13876100D01*
X18530300Y-13890386D01*
X18544586Y-13918957D01*
X18544586Y-14004671D01*
X18530300Y-14033243D01*
X18516014Y-14047529D01*
X18487443Y-14061814D01*
X18430300Y-14061814D01*
X18401729Y-14047529D01*
X18716014Y-14061814D02*
X18687443Y-14047529D01*
X18673157Y-14018957D01*
X18673157Y-13761814D01*
X18958871Y-14061814D02*
X18958871Y-13904671D01*
X18944586Y-13876100D01*
X18916014Y-13861814D01*
X18858871Y-13861814D01*
X18830300Y-13876100D01*
X18958871Y-14047529D02*
X18930300Y-14061814D01*
X18858871Y-14061814D01*
X18830300Y-14047529D01*
X18816014Y-14018957D01*
X18816014Y-13990386D01*
X18830300Y-13961814D01*
X18858871Y-13947529D01*
X18930300Y-13947529D01*
X18958871Y-13933243D01*
X19058871Y-13861814D02*
X19173157Y-13861814D01*
X19101729Y-13761814D02*
X19101729Y-14018957D01*
X19116014Y-14047529D01*
X19144586Y-14061814D01*
X19173157Y-14061814D01*
X19387443Y-14047529D02*
X19358872Y-14061814D01*
X19301729Y-14061814D01*
X19273157Y-14047529D01*
X19258872Y-14018957D01*
X19258872Y-13904671D01*
X19273157Y-13876100D01*
X19301729Y-13861814D01*
X19358872Y-13861814D01*
X19387443Y-13876100D01*
X19401729Y-13904671D01*
X19401729Y-13933243D01*
X19258872Y-13961814D01*
X19658872Y-14061814D02*
X19658872Y-13761814D01*
X19658872Y-14047529D02*
X19630300Y-14061814D01*
X19573157Y-14061814D01*
X19544586Y-14047529D01*
X19530300Y-14033243D01*
X19516014Y-14004671D01*
X19516014Y-13918957D01*
X19530300Y-13890386D01*
X19544586Y-13876100D01*
X19573157Y-13861814D01*
X19630300Y-13861814D01*
X19658872Y-13876100D01*
X19773157Y-14176100D02*
X19787443Y-14161814D01*
X19816014Y-14118957D01*
X19830300Y-14090386D01*
X19844586Y-14047529D01*
X19858872Y-13976100D01*
X19858872Y-13918957D01*
X19844586Y-13847529D01*
X19830300Y-13804671D01*
X19816014Y-13776100D01*
X19787443Y-13733243D01*
X19773157Y-13718957D01*
M02*
