M48
;DRILL file {KiCad 4.0.7} date 12/07/17 00:39:18
;FORMAT={-:-/ absolute / metric / decimal}
FMAT,2
METRIC,TZ
T1C0.300
T2C0.400
T3C1.000
T4C1.016
T5C1.200
T6C1.600
T7C8.100
%
G90
G05
M71
T1
X117.878Y-90.666
X139.728Y-76.416
X140.878Y-90.166
X140.878Y-91.166
X140.878Y-106.416
X140.978Y-72.966
X141.676Y-75.891
X142.328Y-72.441
X142.578Y-75.366
X143.225Y-74.816
X143.578Y-73.516
X143.728Y-74.291
X143.838Y-85.461
X143.85Y-79.85
X143.85Y-81.15
X144.328Y-76.441
X145.15Y-79.85
X145.15Y-81.15
X145.628Y-73.791
X145.761Y-83.538
X147.628Y-100.5
X147.628Y-102.998
X155.027Y-76.441
X155.628Y-100.5
X155.628Y-103.
X156.228Y-81.966
X156.628Y-75.916
X157.578Y-75.391
X158.202Y-82.919
X158.278Y-74.866
X158.828Y-74.341
X158.85Y-79.85
X158.85Y-81.15
X159.278Y-77.766
X159.278Y-77.766
X160.15Y-79.85
X160.15Y-81.15
X160.178Y-77.766
X160.628Y-86.916
X160.628Y-99.916
X161.878Y-86.391
X162.249Y-76.045
X162.678Y-72.466
X163.436Y-72.961
X163.555Y-74.841
X164.028Y-75.366
X164.378Y-75.916
X164.478Y-82.916
X164.528Y-79.279
X165.128Y-78.754
X165.167Y-75.955
X165.541Y-74.011
X165.578Y-77.673
X166.128Y-75.916
X166.383Y-77.152
X170.828Y-77.866
X171.678Y-77.341
X172.428Y-88.066
X172.537Y-76.816
X173.27Y-76.291
X173.628Y-87.666
X173.811Y-75.841
X173.85Y-79.75
X173.85Y-81.05
X174.225Y-83.416
X174.264Y-77.791
X175.15Y-79.75
X175.15Y-81.05
X176.128Y-113.166
X176.728Y-74.166
X177.378Y-100.5
X177.378Y-103.
X177.878Y-92.166
X178.978Y-76.166
X180.128Y-75.416
X180.278Y-73.632
X180.428Y-72.116
X181.228Y-75.566
X181.299Y-73.895
X182.128Y-75.416
X185.628Y-100.5
X185.628Y-103.
X185.878Y-78.266
X186.657Y-78.241
X187.528Y-77.116
X188.128Y-76.516
X188.128Y-99.416
X188.202Y-82.919
X188.728Y-75.916
X188.85Y-79.85
X188.85Y-81.15
X189.228Y-83.516
X189.459Y-77.666
X190.15Y-79.85
X190.15Y-81.15
X192.378Y-90.666
X192.628Y-86.166
X193.128Y-107.416
X194.878Y-73.666
T2
X104.878Y-101.416
X104.878Y-102.416
X104.878Y-103.416
X104.878Y-104.416
X109.Y-104.5
X109.128Y-103.166
X111.5Y-110.5
X112.378Y-97.416
X113.284Y-96.52
X113.878Y-95.916
X114.628Y-95.166
X116.003Y-95.541
X119.778Y-85.816
X120.128Y-104.916
X120.878Y-102.916
X120.878Y-103.916
X124.378Y-94.666
X125.628Y-94.666
X126.878Y-94.666
X128.128Y-85.866
X128.878Y-99.166
X136.678Y-76.416
X137.128Y-103.416
X137.478Y-77.764
X137.478Y-79.666
X137.578Y-94.166
X139.128Y-85.416
X140.878Y-81.75
X141.378Y-95.166
X142.128Y-87.666
X143.378Y-101.916
X144.122Y-106.138
X144.628Y-93.916
X144.878Y-110.916
X150.628Y-79.916
X151.628Y-79.916
X156.878Y-83.616
X166.728Y-81.966
X166.878Y-79.916
X171.178Y-81.866
X172.578Y-83.616
X173.378Y-100.666
X180.628Y-81.05
X181.628Y-81.05
X186.378Y-81.916
X186.678Y-83.966
X191.628Y-98.916
X191.628Y-102.166
X191.878Y-111.916
X193.128Y-93.666
T3
X135.378Y-87.126
X135.378Y-89.666
X135.378Y-111.876
X135.378Y-114.416
X165.Y-100.5
X165.Y-103.04
X165.Y-105.58
X165.Y-110.5
X165.Y-113.04
X165.Y-115.58
X167.005Y-91.44
X167.005Y-93.98
X167.005Y-96.52
X169.Y-100.5
X169.Y-103.04
X169.Y-105.58
X169.Y-110.5
X169.Y-113.04
X169.Y-115.58
X169.545Y-91.44
X169.545Y-93.98
X169.545Y-96.52
T4
X122.174Y-70.866
X124.714Y-70.866
X127.254Y-70.866
X129.794Y-70.866
X131.318Y-119.126
X132.334Y-70.866
X133.858Y-119.126
X134.874Y-70.866
X136.398Y-119.126
X137.414Y-70.866
X138.938Y-119.126
X139.954Y-70.866
X141.478Y-119.126
X142.494Y-70.866
X144.018Y-119.126
X145.034Y-70.866
X146.558Y-119.126
X149.098Y-70.866
X149.098Y-119.126
X151.638Y-70.866
X154.178Y-70.866
X154.178Y-119.126
X156.718Y-70.866
X156.718Y-119.126
X159.258Y-70.866
X159.258Y-119.126
X161.798Y-70.866
X161.798Y-119.126
X164.338Y-70.866
X164.338Y-119.126
X166.878Y-70.866
X166.878Y-119.126
X169.418Y-119.126
X171.958Y-70.866
X171.958Y-119.126
X174.498Y-70.866
X177.038Y-70.866
X177.038Y-119.126
X179.578Y-70.866
X179.578Y-119.126
X182.118Y-70.866
X182.118Y-119.126
X184.658Y-70.866
X184.658Y-119.126
X187.198Y-70.866
X187.198Y-119.126
X189.738Y-70.866
X189.738Y-119.126
X192.278Y-119.126
X194.818Y-119.126
X197.358Y-70.866
X197.358Y-73.406
X197.358Y-75.946
X197.358Y-78.486
X197.358Y-81.026
X197.358Y-83.566
X197.358Y-86.106
X197.358Y-88.646
X197.358Y-91.186
X197.358Y-93.726
X197.358Y-96.266
X197.358Y-98.806
X197.358Y-101.346
X197.358Y-103.886
X197.358Y-106.426
X197.358Y-108.966
X197.358Y-111.506
X197.358Y-114.046
X199.898Y-70.866
X199.898Y-73.406
X199.898Y-75.946
X199.898Y-78.486
X199.898Y-81.026
X199.898Y-83.566
X199.898Y-86.106
X199.898Y-88.646
X199.898Y-91.186
X199.898Y-93.726
X199.898Y-96.266
X199.898Y-98.806
X199.898Y-101.346
X199.898Y-103.886
X199.898Y-106.426
X199.898Y-108.966
X199.898Y-111.506
X199.898Y-114.046
T5
X150.232Y-88.732
X150.232Y-92.268
X150.232Y-106.232
X150.232Y-109.768
X152.Y-90.5
X152.Y-108.
X153.768Y-88.732
X153.768Y-92.268
X153.768Y-106.232
X153.768Y-109.768
X180.232Y-88.732
X180.232Y-92.268
X180.232Y-106.232
X180.232Y-109.768
X182.Y-90.5
X182.Y-108.
X183.768Y-88.732
X183.768Y-92.268
X183.768Y-106.232
X183.768Y-109.768
T6
X135.378Y-98.666
T7
X110.236Y-78.74
X123.952Y-78.74
T0
M30
