M48
;DRILL file {KiCad 4.0.7} date 12/07/17 00:39:18
;FORMAT={-:-/ absolute / metric / decimal}
FMAT,2
METRIC,TZ
T1C1.300
T2C2.450
T3C2.800
%
G90
G05
M71
T1
X152.Y-98.2
X152.Y-115.7
X182.Y-98.2
X182.Y-115.7
T2
X144.5Y-97.
X144.5Y-114.5
X159.5Y-97.
X159.5Y-114.5
X174.5Y-97.
X174.5Y-114.5
X189.5Y-97.
X189.5Y-114.5
T3
X144.5Y-90.5
X144.5Y-108.
X159.5Y-90.5
X159.5Y-108.
X174.5Y-90.5
X174.5Y-108.
X189.5Y-90.5
X189.5Y-108.
T0
M30
