G04 #@! TF.FileFunction,Paste,Bot*
%FSLAX46Y46*%
G04 Gerber Fmt 4.6, Leading zero omitted, Abs format (unit mm)*
G04 Created by KiCad (PCBNEW 4.0.7) date 12/07/17 00:39:05*
%MOMM*%
%LPD*%
G01*
G04 APERTURE LIST*
%ADD10C,0.100000*%
%ADD11R,0.700000X1.300000*%
%ADD12R,1.000000X1.250000*%
%ADD13R,0.508000X1.143000*%
%ADD14R,1.300000X0.700000*%
%ADD15R,1.400000X1.300000*%
%ADD16R,1.100000X1.100000*%
%ADD17R,0.900000X0.800000*%
%ADD18R,0.800000X0.900000*%
%ADD19O,0.850000X0.300000*%
%ADD20R,0.850000X0.300000*%
%ADD21O,0.300000X0.850000*%
%ADD22R,0.300000X0.850000*%
%ADD23R,0.780000X0.780000*%
G04 APERTURE END LIST*
D10*
D11*
X178172250Y-100500000D03*
X180072250Y-100500000D03*
X174672250Y-103000000D03*
X176572250Y-103000000D03*
X174672250Y-100500000D03*
X176572250Y-100500000D03*
X178172250Y-103000000D03*
X180072250Y-103000000D03*
X184827750Y-103000000D03*
X182927750Y-103000000D03*
X188327750Y-100500000D03*
X186427750Y-100500000D03*
X188327750Y-103000000D03*
X186427750Y-103000000D03*
X184827750Y-100500000D03*
X182927750Y-100500000D03*
X148500000Y-103000000D03*
X150400000Y-103000000D03*
X144996000Y-100500000D03*
X146896000Y-100500000D03*
X148500000Y-100500000D03*
X150400000Y-100500000D03*
X144996000Y-102998000D03*
X146896000Y-102998000D03*
D12*
X139750000Y-83750000D03*
X137750000Y-83750000D03*
D13*
X114935000Y-106299000D03*
X116205000Y-106299000D03*
X117475000Y-106299000D03*
X118745000Y-106299000D03*
X118745000Y-99949000D03*
X117475000Y-99949000D03*
X116205000Y-99949000D03*
X114935000Y-99949000D03*
X125349000Y-99949000D03*
X124079000Y-99949000D03*
X122809000Y-99949000D03*
X121539000Y-99949000D03*
X121539000Y-106299000D03*
X122809000Y-106299000D03*
X124079000Y-106299000D03*
X125349000Y-106299000D03*
D12*
X116856000Y-96520000D03*
X118856000Y-96520000D03*
X123500000Y-109000000D03*
X121500000Y-109000000D03*
D11*
X110550000Y-107000000D03*
X112450000Y-107000000D03*
X110550000Y-105000000D03*
X112450000Y-105000000D03*
D14*
X128000000Y-101050000D03*
X128000000Y-102950000D03*
X128000000Y-104550000D03*
X128000000Y-106450000D03*
D11*
X125918000Y-96520000D03*
X124018000Y-96520000D03*
X109450000Y-101500000D03*
X107550000Y-101500000D03*
X112950000Y-101500000D03*
X111050000Y-101500000D03*
D14*
X107000000Y-104550000D03*
X107000000Y-106450000D03*
D12*
X139750000Y-81750000D03*
X137750000Y-81750000D03*
X139750000Y-79750000D03*
X137750000Y-79750000D03*
X139750000Y-77750000D03*
X137750000Y-77750000D03*
X146000000Y-93500000D03*
X148000000Y-93500000D03*
X156500000Y-93500000D03*
X158500000Y-93500000D03*
X141000000Y-100500000D03*
X139000000Y-100500000D03*
X170028000Y-83666000D03*
X168028000Y-83666000D03*
X170000000Y-81750000D03*
X168000000Y-81750000D03*
X170000000Y-79750000D03*
X168000000Y-79750000D03*
X155000000Y-77750000D03*
X153000000Y-77750000D03*
X146000000Y-111000000D03*
X148000000Y-111000000D03*
X157000000Y-111000000D03*
X159000000Y-111000000D03*
X141000000Y-113500000D03*
X139000000Y-113500000D03*
X154978000Y-83716000D03*
X152978000Y-83716000D03*
X155000000Y-81750000D03*
X153000000Y-81750000D03*
X155000000Y-79750000D03*
X153000000Y-79750000D03*
X170000000Y-77750000D03*
X168000000Y-77750000D03*
X176000000Y-93500000D03*
X178000000Y-93500000D03*
X186500000Y-93500000D03*
X188500000Y-93500000D03*
X193000000Y-100416000D03*
X195000000Y-100416000D03*
X184750000Y-83750000D03*
X182750000Y-83750000D03*
X184750000Y-81750000D03*
X182750000Y-81750000D03*
X184750000Y-79750000D03*
X182750000Y-79750000D03*
X184750000Y-77750000D03*
X182750000Y-77750000D03*
X176000000Y-111000000D03*
X178000000Y-111000000D03*
X186500000Y-111000000D03*
X188500000Y-111000000D03*
X193000000Y-113000000D03*
X195000000Y-113000000D03*
D15*
X131378000Y-85116000D03*
X131378000Y-82216000D03*
D16*
X113128000Y-88516000D03*
X113128000Y-91316000D03*
X147600000Y-96000000D03*
X150400000Y-96000000D03*
X153600000Y-96000000D03*
X156400000Y-96000000D03*
D17*
X140878000Y-92716000D03*
X140878000Y-94616000D03*
X138878000Y-93666000D03*
X141000000Y-96550000D03*
X141000000Y-98450000D03*
X139000000Y-97500000D03*
D16*
X147600000Y-113500000D03*
X150400000Y-113500000D03*
X153500000Y-113500000D03*
X156300000Y-113500000D03*
D17*
X141000000Y-105600000D03*
X141000000Y-107500000D03*
X139000000Y-106550000D03*
X141000000Y-109600000D03*
X141000000Y-111500000D03*
X139000000Y-110550000D03*
D16*
X177600000Y-96000000D03*
X180400000Y-96000000D03*
X183600000Y-96000000D03*
X186400000Y-96000000D03*
D17*
X193128000Y-94616000D03*
X193128000Y-92716000D03*
X195128000Y-93666000D03*
X193000000Y-98450000D03*
X193000000Y-96550000D03*
X195000000Y-97500000D03*
D16*
X177600000Y-113500000D03*
X180400000Y-113500000D03*
X183700000Y-113500000D03*
X186500000Y-113500000D03*
D17*
X193000000Y-107450000D03*
X193000000Y-105550000D03*
X195000000Y-106500000D03*
X193000000Y-110950000D03*
X193000000Y-109050000D03*
X195000000Y-110000000D03*
D18*
X115928000Y-88416000D03*
X117828000Y-88416000D03*
X116878000Y-90416000D03*
X132328000Y-102916000D03*
X130428000Y-102916000D03*
X131378000Y-100916000D03*
D14*
X109878000Y-86466000D03*
X109878000Y-88366000D03*
X109878000Y-91616000D03*
X109878000Y-89716000D03*
D11*
X158400000Y-100500000D03*
X156500000Y-100500000D03*
X154900000Y-100500000D03*
X153000000Y-100500000D03*
X158400000Y-103000000D03*
X156500000Y-103000000D03*
X154900000Y-103000000D03*
X153000000Y-103000000D03*
D19*
X142550000Y-81750000D03*
D20*
X142550000Y-81250000D03*
X142550000Y-80750000D03*
X142550000Y-80250000D03*
X142550000Y-79750000D03*
D19*
X142550000Y-79250000D03*
D21*
X143250000Y-78550000D03*
D22*
X143750000Y-78550000D03*
X144250000Y-78550000D03*
X144750000Y-78550000D03*
X145250000Y-78550000D03*
D21*
X145750000Y-78550000D03*
D19*
X146450000Y-79250000D03*
D20*
X146450000Y-79750000D03*
X146450000Y-80250000D03*
X146450000Y-80750000D03*
X146450000Y-81250000D03*
D19*
X146450000Y-81750000D03*
D21*
X145750000Y-82450000D03*
D22*
X145250000Y-82450000D03*
X144750000Y-82450000D03*
X144250000Y-82450000D03*
X143750000Y-82450000D03*
D21*
X143250000Y-82450000D03*
D23*
X145150000Y-79850000D03*
X145150000Y-81150000D03*
X143850000Y-79850000D03*
X143850000Y-81150000D03*
D19*
X157550000Y-81750000D03*
D20*
X157550000Y-81250000D03*
X157550000Y-80750000D03*
X157550000Y-80250000D03*
X157550000Y-79750000D03*
D19*
X157550000Y-79250000D03*
D21*
X158250000Y-78550000D03*
D22*
X158750000Y-78550000D03*
X159250000Y-78550000D03*
X159750000Y-78550000D03*
X160250000Y-78550000D03*
D21*
X160750000Y-78550000D03*
D19*
X161450000Y-79250000D03*
D20*
X161450000Y-79750000D03*
X161450000Y-80250000D03*
X161450000Y-80750000D03*
X161450000Y-81250000D03*
D19*
X161450000Y-81750000D03*
D21*
X160750000Y-82450000D03*
D22*
X160250000Y-82450000D03*
X159750000Y-82450000D03*
X159250000Y-82450000D03*
X158750000Y-82450000D03*
D21*
X158250000Y-82450000D03*
D23*
X160150000Y-79850000D03*
X160150000Y-81150000D03*
X158850000Y-79850000D03*
X158850000Y-81150000D03*
D19*
X172550000Y-81650000D03*
D20*
X172550000Y-81150000D03*
X172550000Y-80650000D03*
X172550000Y-80150000D03*
X172550000Y-79650000D03*
D19*
X172550000Y-79150000D03*
D21*
X173250000Y-78450000D03*
D22*
X173750000Y-78450000D03*
X174250000Y-78450000D03*
X174750000Y-78450000D03*
X175250000Y-78450000D03*
D21*
X175750000Y-78450000D03*
D19*
X176450000Y-79150000D03*
D20*
X176450000Y-79650000D03*
X176450000Y-80150000D03*
X176450000Y-80650000D03*
X176450000Y-81150000D03*
D19*
X176450000Y-81650000D03*
D21*
X175750000Y-82350000D03*
D22*
X175250000Y-82350000D03*
X174750000Y-82350000D03*
X174250000Y-82350000D03*
X173750000Y-82350000D03*
D21*
X173250000Y-82350000D03*
D23*
X175150000Y-79750000D03*
X175150000Y-81050000D03*
X173850000Y-79750000D03*
X173850000Y-81050000D03*
D19*
X187550000Y-81750000D03*
D20*
X187550000Y-81250000D03*
X187550000Y-80750000D03*
X187550000Y-80250000D03*
X187550000Y-79750000D03*
D19*
X187550000Y-79250000D03*
D21*
X188250000Y-78550000D03*
D22*
X188750000Y-78550000D03*
X189250000Y-78550000D03*
X189750000Y-78550000D03*
X190250000Y-78550000D03*
D21*
X190750000Y-78550000D03*
D19*
X191450000Y-79250000D03*
D20*
X191450000Y-79750000D03*
X191450000Y-80250000D03*
X191450000Y-80750000D03*
X191450000Y-81250000D03*
D19*
X191450000Y-81750000D03*
D21*
X190750000Y-82450000D03*
D22*
X190250000Y-82450000D03*
X189750000Y-82450000D03*
X189250000Y-82450000D03*
X188750000Y-82450000D03*
D21*
X188250000Y-82450000D03*
D23*
X190150000Y-79850000D03*
X190150000Y-81150000D03*
X188850000Y-79850000D03*
X188850000Y-81150000D03*
M02*
