%FSLAX45Y45*%
G04 Gerber Fmt 4.5, Leading zero omitted, Abs format (unit mm)*
G04 Created by KiCad (PCBNEW 4.0.7) date 12/07/17 00:39:20*
%MOMM*%
%LPD*%
G01*
G04 APERTURE LIST*
%ADD10C,0.127000*%
%ADD11C,0.150000*%
%ADD12C,0.200000*%
%ADD13C,0.300000*%
G04 APERTURE END LIST*
D10*
D11*
X20243800Y-7086600D02*
X20243800Y-8102600D01*
X20497800Y-11785600D02*
X20243800Y-12039600D01*
X20497800Y-8356600D02*
X20497800Y-11785600D01*
X20243800Y-8102600D02*
X20497800Y-8356600D01*
X19989800Y-6832600D02*
X20243800Y-7086600D01*
X20243800Y-12039600D02*
X20243800Y-12166600D01*
X10337800Y-12166600D02*
X10337800Y-6832600D01*
X20243800Y-12166600D02*
X10337800Y-12166600D01*
X10337800Y-6832600D02*
X19989800Y-6832600D01*
D12*
X11772801Y-9051600D02*
X11802801Y-9081600D01*
X11802801Y-9051600D02*
X11772801Y-9081600D01*
X13957800Y-7626601D02*
X13987800Y-7656601D01*
X13987800Y-7626601D02*
X13957800Y-7656601D01*
X14072800Y-9001600D02*
X14102800Y-9031600D01*
X14102800Y-9001600D02*
X14072800Y-9031600D01*
X14072800Y-9101600D02*
X14102800Y-9131600D01*
X14102800Y-9101600D02*
X14072800Y-9131600D01*
X14072800Y-10626600D02*
X14102800Y-10656600D01*
X14102800Y-10626600D02*
X14072800Y-10656600D01*
X14082800Y-7281600D02*
X14112800Y-7311600D01*
X14112800Y-7281600D02*
X14082800Y-7311600D01*
X14152576Y-7574099D02*
X14182576Y-7604099D01*
X14182576Y-7574099D02*
X14152576Y-7604099D01*
X14217800Y-7229099D02*
X14247800Y-7259099D01*
X14247800Y-7229099D02*
X14217800Y-7259099D01*
X14242800Y-7521600D02*
X14272800Y-7551600D01*
X14272800Y-7521600D02*
X14242800Y-7551600D01*
X14307499Y-7466600D02*
X14337499Y-7496600D01*
X14337499Y-7466600D02*
X14307499Y-7496600D01*
X14342800Y-7336600D02*
X14372800Y-7366600D01*
X14372800Y-7336600D02*
X14342800Y-7366600D01*
X14357800Y-7414099D02*
X14387800Y-7444099D01*
X14387800Y-7414099D02*
X14357800Y-7444099D01*
X14368812Y-8531089D02*
X14398812Y-8561089D01*
X14398812Y-8531089D02*
X14368812Y-8561089D01*
X14370000Y-7970000D02*
X14400000Y-8000000D01*
X14400000Y-7970000D02*
X14370000Y-8000000D01*
X14370000Y-8100000D02*
X14400000Y-8130000D01*
X14400000Y-8100000D02*
X14370000Y-8130000D01*
X14417800Y-7629103D02*
X14447800Y-7659103D01*
X14447800Y-7629103D02*
X14417800Y-7659103D01*
X14500000Y-7970000D02*
X14530000Y-8000000D01*
X14530000Y-7970000D02*
X14500000Y-8000000D01*
X14500000Y-8100000D02*
X14530000Y-8130000D01*
X14530000Y-8100000D02*
X14500000Y-8130000D01*
X14547800Y-7364097D02*
X14577800Y-7394097D01*
X14577800Y-7364097D02*
X14547800Y-7394097D01*
X14561079Y-8338821D02*
X14591079Y-8368821D01*
X14591079Y-8338821D02*
X14561079Y-8368821D01*
X14747800Y-10035000D02*
X14777800Y-10065000D01*
X14777800Y-10035000D02*
X14747800Y-10065000D01*
X14747800Y-10284800D02*
X14777800Y-10314800D01*
X14777800Y-10284800D02*
X14747800Y-10314800D01*
X15487732Y-7629103D02*
X15517732Y-7659103D01*
X15517732Y-7629103D02*
X15487732Y-7659103D01*
X15547800Y-10035000D02*
X15577800Y-10065000D01*
X15577800Y-10035000D02*
X15547800Y-10065000D01*
X15547800Y-10285000D02*
X15577800Y-10315000D01*
X15577800Y-10285000D02*
X15547800Y-10315000D01*
X15607800Y-8181600D02*
X15637800Y-8211600D01*
X15637800Y-8181600D02*
X15607800Y-8211600D01*
X15647800Y-7576602D02*
X15677800Y-7606602D01*
X15677800Y-7576602D02*
X15647800Y-7606602D01*
X15742800Y-7524101D02*
X15772800Y-7554101D01*
X15772800Y-7524101D02*
X15742800Y-7554101D01*
X15805240Y-8276882D02*
X15835240Y-8306882D01*
X15835240Y-8276882D02*
X15805240Y-8306882D01*
X15812800Y-7471600D02*
X15842800Y-7501600D01*
X15842800Y-7471600D02*
X15812800Y-7501600D01*
X15867800Y-7419099D02*
X15897800Y-7449099D01*
X15897800Y-7419099D02*
X15867800Y-7449099D01*
X15870000Y-7970000D02*
X15900000Y-8000000D01*
X15900000Y-7970000D02*
X15870000Y-8000000D01*
X15870000Y-8100000D02*
X15900000Y-8130000D01*
X15900000Y-8100000D02*
X15870000Y-8130000D01*
X15912800Y-7761600D02*
X15942800Y-7791600D01*
X15942800Y-7761600D02*
X15912800Y-7791600D01*
X15912800Y-7761600D02*
X15942800Y-7791600D01*
X15942800Y-7761600D02*
X15912800Y-7791600D01*
X16000000Y-7970000D02*
X16030000Y-8000000D01*
X16030000Y-7970000D02*
X16000000Y-8000000D01*
X16000000Y-8100000D02*
X16030000Y-8130000D01*
X16030000Y-8100000D02*
X16000000Y-8130000D01*
X16002800Y-7761600D02*
X16032800Y-7791600D01*
X16032800Y-7761600D02*
X16002800Y-7791600D01*
X16047800Y-8676600D02*
X16077800Y-8706600D01*
X16077800Y-8676600D02*
X16047800Y-8706600D01*
X16047800Y-9976600D02*
X16077800Y-10006600D01*
X16077800Y-9976600D02*
X16047800Y-10006600D01*
X16172800Y-8624099D02*
X16202800Y-8654099D01*
X16202800Y-8624099D02*
X16172800Y-8654099D01*
X16209924Y-7589477D02*
X16239924Y-7619477D01*
X16239924Y-7589477D02*
X16209924Y-7619477D01*
X16252800Y-7231600D02*
X16282800Y-7261600D01*
X16282800Y-7231600D02*
X16252800Y-7261600D01*
X16328605Y-7281080D02*
X16358605Y-7311080D01*
X16358605Y-7281080D02*
X16328605Y-7311080D01*
X16340468Y-7469099D02*
X16370468Y-7499099D01*
X16370468Y-7469099D02*
X16340468Y-7499099D01*
X16387800Y-7521600D02*
X16417800Y-7551600D01*
X16417800Y-7521600D02*
X16387800Y-7551600D01*
X16422801Y-7576600D02*
X16452801Y-7606600D01*
X16452801Y-7576600D02*
X16422801Y-7606600D01*
X16432800Y-8276600D02*
X16462800Y-8306600D01*
X16462800Y-8276600D02*
X16432800Y-8306600D01*
X16437800Y-7912904D02*
X16467800Y-7942904D01*
X16467800Y-7912904D02*
X16437800Y-7942904D01*
X16497798Y-7860404D02*
X16527798Y-7890404D01*
X16527798Y-7860404D02*
X16497798Y-7890404D01*
X16501700Y-7580502D02*
X16531700Y-7610502D01*
X16531700Y-7580502D02*
X16501700Y-7610502D01*
X16539072Y-7386081D02*
X16569072Y-7416081D01*
X16569072Y-7386081D02*
X16539072Y-7416081D01*
X16542799Y-7752251D02*
X16572799Y-7782251D01*
X16572799Y-7752251D02*
X16542799Y-7782251D01*
X16597800Y-7576600D02*
X16627800Y-7606600D01*
X16627800Y-7576600D02*
X16597800Y-7606600D01*
X16623316Y-7700229D02*
X16653316Y-7730229D01*
X16653316Y-7700229D02*
X16623316Y-7730229D01*
X17067800Y-7771611D02*
X17097800Y-7801611D01*
X17097800Y-7771611D02*
X17067800Y-7801611D01*
X17152800Y-7719110D02*
X17182800Y-7749110D01*
X17182800Y-7719110D02*
X17152800Y-7749110D01*
X17227800Y-8791599D02*
X17257800Y-8821599D01*
X17257800Y-8791599D02*
X17227800Y-8821599D01*
X17238660Y-7666609D02*
X17268660Y-7696609D01*
X17268660Y-7666609D02*
X17238660Y-7696609D01*
X17312028Y-7614108D02*
X17342028Y-7644108D01*
X17342028Y-7614108D02*
X17312028Y-7644108D01*
X17347800Y-8751601D02*
X17377800Y-8781601D01*
X17377800Y-8751601D02*
X17347800Y-8781601D01*
X17366144Y-7569107D02*
X17396144Y-7599107D01*
X17396144Y-7569107D02*
X17366144Y-7599107D01*
X17370000Y-7960000D02*
X17400000Y-7990000D01*
X17400000Y-7960000D02*
X17370000Y-7990000D01*
X17370000Y-8090000D02*
X17400000Y-8120000D01*
X17400000Y-8090000D02*
X17370000Y-8120000D01*
X17407499Y-8326612D02*
X17437499Y-8356612D01*
X17437499Y-8326612D02*
X17407499Y-8356612D01*
X17411438Y-7764112D02*
X17441438Y-7794112D01*
X17441438Y-7764112D02*
X17411438Y-7794112D01*
X17500000Y-7960000D02*
X17530000Y-7990000D01*
X17530000Y-7960000D02*
X17500000Y-7990000D01*
X17500000Y-8090000D02*
X17530000Y-8120000D01*
X17530000Y-8090000D02*
X17500000Y-8120000D01*
X17597800Y-11301601D02*
X17627800Y-11331601D01*
X17627800Y-11301601D02*
X17597800Y-11331601D01*
X17657800Y-7401600D02*
X17687800Y-7431600D01*
X17687800Y-7401600D02*
X17657800Y-7431600D01*
X17722800Y-10035000D02*
X17752800Y-10065000D01*
X17752800Y-10035000D02*
X17722800Y-10065000D01*
X17722800Y-10285000D02*
X17752800Y-10315000D01*
X17752800Y-10285000D02*
X17722800Y-10315000D01*
X17772800Y-9201600D02*
X17802800Y-9231600D01*
X17802800Y-9201600D02*
X17772800Y-9231600D01*
X17882800Y-7601600D02*
X17912800Y-7631600D01*
X17912800Y-7601600D02*
X17882800Y-7631600D01*
X17997801Y-7526600D02*
X18027801Y-7556600D01*
X18027801Y-7526600D02*
X17997801Y-7556600D01*
X18012800Y-7348204D02*
X18042800Y-7378204D01*
X18042800Y-7348204D02*
X18012800Y-7378204D01*
X18027800Y-7196598D02*
X18057800Y-7226598D01*
X18057800Y-7196598D02*
X18027800Y-7226598D01*
X18107800Y-7541600D02*
X18137800Y-7571600D01*
X18137800Y-7541600D02*
X18107800Y-7571600D01*
X18114923Y-7374475D02*
X18144923Y-7404475D01*
X18144923Y-7374475D02*
X18114923Y-7404475D01*
X18197800Y-7526600D02*
X18227800Y-7556600D01*
X18227800Y-7526600D02*
X18197800Y-7556600D01*
X18547800Y-10035000D02*
X18577800Y-10065000D01*
X18577800Y-10035000D02*
X18547800Y-10065000D01*
X18547800Y-10285000D02*
X18577800Y-10315000D01*
X18577800Y-10285000D02*
X18547800Y-10315000D01*
X18572800Y-7811600D02*
X18602800Y-7841600D01*
X18602800Y-7811600D02*
X18572800Y-7841600D01*
X18650703Y-7809101D02*
X18680703Y-7839101D01*
X18680703Y-7809101D02*
X18650703Y-7839101D01*
X18737800Y-7696600D02*
X18767800Y-7726600D01*
X18767800Y-7696600D02*
X18737800Y-7726600D01*
X18797800Y-7636600D02*
X18827800Y-7666600D01*
X18827800Y-7636600D02*
X18797800Y-7666600D01*
X18797800Y-9926600D02*
X18827800Y-9956600D01*
X18827800Y-9926600D02*
X18797800Y-9956600D01*
X18805241Y-8276882D02*
X18835241Y-8306882D01*
X18835241Y-8276882D02*
X18805241Y-8306882D01*
X18857800Y-7576600D02*
X18887800Y-7606600D01*
X18887800Y-7576600D02*
X18857800Y-7606600D01*
X18870000Y-7970000D02*
X18900000Y-8000000D01*
X18900000Y-7970000D02*
X18870000Y-8000000D01*
X18870000Y-8100000D02*
X18900000Y-8130000D01*
X18900000Y-8100000D02*
X18870000Y-8130000D01*
X18907800Y-8336600D02*
X18937800Y-8366600D01*
X18937800Y-8336600D02*
X18907800Y-8366600D01*
X18930900Y-7751600D02*
X18960900Y-7781600D01*
X18960900Y-7751600D02*
X18930900Y-7781600D01*
X19000000Y-7970000D02*
X19030000Y-8000000D01*
X19030000Y-7970000D02*
X19000000Y-8000000D01*
X19000000Y-8100000D02*
X19030000Y-8130000D01*
X19030000Y-8100000D02*
X19000000Y-8130000D01*
X19222800Y-9051601D02*
X19252800Y-9081601D01*
X19252800Y-9051601D02*
X19222800Y-9081601D01*
X19247800Y-8601600D02*
X19277800Y-8631600D01*
X19277800Y-8601600D02*
X19247800Y-8631600D01*
X19297800Y-10726600D02*
X19327800Y-10756600D01*
X19327800Y-10726600D02*
X19297800Y-10756600D01*
X19472800Y-7351601D02*
X19502800Y-7381601D01*
X19502800Y-7351601D02*
X19472800Y-7381601D01*
X10507800Y-10141600D02*
G75*
G03X10507800Y-10141600I-20000J0D01*
G01*
X10507800Y-10241600D02*
G75*
G03X10507800Y-10241600I-20000J0D01*
G01*
X10507800Y-10341600D02*
G75*
G03X10507800Y-10341600I-20000J0D01*
G01*
X10507800Y-10441600D02*
G75*
G03X10507800Y-10441600I-20000J0D01*
G01*
X10920000Y-10450000D02*
G75*
G03X10920000Y-10450000I-20000J0D01*
G01*
X10932800Y-10316600D02*
G75*
G03X10932800Y-10316600I-20000J0D01*
G01*
X11170000Y-11050000D02*
G75*
G03X11170000Y-11050000I-20000J0D01*
G01*
X11257804Y-9741600D02*
G75*
G03X11257804Y-9741600I-20000J0D01*
G01*
X11348400Y-9652000D02*
G75*
G03X11348400Y-9652000I-20000J0D01*
G01*
X11407800Y-9591598D02*
G75*
G03X11407800Y-9591598I-20000J0D01*
G01*
X11482800Y-9516599D02*
G75*
G03X11482800Y-9516599I-20000J0D01*
G01*
X11620322Y-9554067D02*
G75*
G03X11620322Y-9554067I-20000J0D01*
G01*
X11997800Y-8581600D02*
G75*
G03X11997800Y-8581600I-20000J0D01*
G01*
X12032800Y-10491600D02*
G75*
G03X12032800Y-10491600I-20000J0D01*
G01*
X12107800Y-10291600D02*
G75*
G03X12107800Y-10291600I-20000J0D01*
G01*
X12107800Y-10391600D02*
G75*
G03X12107800Y-10391600I-20000J0D01*
G01*
X12457800Y-9466600D02*
G75*
G03X12457800Y-9466600I-20000J0D01*
G01*
X12582800Y-9466600D02*
G75*
G03X12582800Y-9466600I-20000J0D01*
G01*
X12707800Y-9466600D02*
G75*
G03X12707800Y-9466600I-20000J0D01*
G01*
X12832800Y-8586600D02*
G75*
G03X12832800Y-8586600I-20000J0D01*
G01*
X12907800Y-9916600D02*
G75*
G03X12907800Y-9916600I-20000J0D01*
G01*
X13687800Y-7641600D02*
G75*
G03X13687800Y-7641600I-20000J0D01*
G01*
X13732800Y-10341600D02*
G75*
G03X13732800Y-10341600I-20000J0D01*
G01*
X13767801Y-7776428D02*
G75*
G03X13767801Y-7776428I-20000J0D01*
G01*
X13767801Y-7966601D02*
G75*
G03X13767801Y-7966601I-20000J0D01*
G01*
X13777800Y-9416600D02*
G75*
G03X13777800Y-9416600I-20000J0D01*
G01*
X13932800Y-8541600D02*
G75*
G03X13932800Y-8541600I-20000J0D01*
G01*
X14107800Y-8175000D02*
G75*
G03X14107800Y-8175000I-20000J0D01*
G01*
X14157801Y-9516600D02*
G75*
G03X14157801Y-9516600I-20000J0D01*
G01*
X14232800Y-8766599D02*
G75*
G03X14232800Y-8766599I-20000J0D01*
G01*
X14357800Y-10191600D02*
G75*
G03X14357800Y-10191600I-20000J0D01*
G01*
X14432230Y-10613791D02*
G75*
G03X14432230Y-10613791I-20000J0D01*
G01*
X14482800Y-9391600D02*
G75*
G03X14482800Y-9391600I-20000J0D01*
G01*
X14507800Y-11091600D02*
G75*
G03X14507800Y-11091600I-20000J0D01*
G01*
X15082800Y-7991600D02*
G75*
G03X15082800Y-7991600I-20000J0D01*
G01*
X15182800Y-7991600D02*
G75*
G03X15182800Y-7991600I-20000J0D01*
G01*
X15707800Y-8361600D02*
G75*
G03X15707800Y-8361600I-20000J0D01*
G01*
X16692800Y-8196600D02*
G75*
G03X16692800Y-8196600I-20000J0D01*
G01*
X16707800Y-7991597D02*
G75*
G03X16707800Y-7991597I-20000J0D01*
G01*
X17137800Y-8186600D02*
G75*
G03X17137800Y-8186600I-20000J0D01*
G01*
X17277799Y-8361600D02*
G75*
G03X17277799Y-8361600I-20000J0D01*
G01*
X17357800Y-10066600D02*
G75*
G03X17357800Y-10066600I-20000J0D01*
G01*
X18082800Y-8105000D02*
G75*
G03X18082800Y-8105000I-20000J0D01*
G01*
X18182800Y-8105000D02*
G75*
G03X18182800Y-8105000I-20000J0D01*
G01*
X18657800Y-8191600D02*
G75*
G03X18657800Y-8191600I-20000J0D01*
G01*
X18687800Y-8396600D02*
G75*
G03X18687800Y-8396600I-20000J0D01*
G01*
X19182800Y-9891600D02*
G75*
G03X19182800Y-9891600I-20000J0D01*
G01*
X19182800Y-10216599D02*
G75*
G03X19182800Y-10216599I-20000J0D01*
G01*
X19207800Y-11191600D02*
G75*
G03X19207800Y-11191600I-20000J0D01*
G01*
X19332800Y-9366600D02*
G75*
G03X19332800Y-9366600I-20000J0D01*
G01*
X13537800Y-8662600D02*
X13537800Y-8762600D01*
X13487800Y-8712600D02*
X13587800Y-8712600D01*
X13537800Y-8916600D02*
X13537800Y-9016600D01*
X13487800Y-8966600D02*
X13587800Y-8966600D01*
X13537800Y-11137600D02*
X13537800Y-11237600D01*
X13487800Y-11187600D02*
X13587800Y-11187600D01*
X13537800Y-11391600D02*
X13537800Y-11491600D01*
X13487800Y-11441600D02*
X13587800Y-11441600D01*
X16500000Y-10000000D02*
X16500000Y-10100000D01*
X16450000Y-10050000D02*
X16550000Y-10050000D01*
X16500000Y-10254000D02*
X16500000Y-10354000D01*
X16450000Y-10304000D02*
X16550000Y-10304000D01*
X16500000Y-10508000D02*
X16500000Y-10608000D01*
X16450000Y-10558000D02*
X16550000Y-10558000D01*
X16500000Y-11000000D02*
X16500000Y-11100000D01*
X16450000Y-11050000D02*
X16550000Y-11050000D01*
X16500000Y-11254000D02*
X16500000Y-11354000D01*
X16450000Y-11304000D02*
X16550000Y-11304000D01*
X16500000Y-11508000D02*
X16500000Y-11608000D01*
X16450000Y-11558000D02*
X16550000Y-11558000D01*
X16700500Y-9094000D02*
X16700500Y-9194000D01*
X16650500Y-9144000D02*
X16750500Y-9144000D01*
X16700500Y-9348000D02*
X16700500Y-9448000D01*
X16650500Y-9398000D02*
X16750500Y-9398000D01*
X16700500Y-9602000D02*
X16700500Y-9702000D01*
X16650500Y-9652000D02*
X16750500Y-9652000D01*
X16900000Y-10000000D02*
X16900000Y-10100000D01*
X16850000Y-10050000D02*
X16950000Y-10050000D01*
X16900000Y-10254000D02*
X16900000Y-10354000D01*
X16850000Y-10304000D02*
X16950000Y-10304000D01*
X16900000Y-10508000D02*
X16900000Y-10608000D01*
X16850000Y-10558000D02*
X16950000Y-10558000D01*
X16900000Y-11000000D02*
X16900000Y-11100000D01*
X16850000Y-11050000D02*
X16950000Y-11050000D01*
X16900000Y-11254000D02*
X16900000Y-11354000D01*
X16850000Y-11304000D02*
X16950000Y-11304000D01*
X16900000Y-11508000D02*
X16900000Y-11608000D01*
X16850000Y-11558000D02*
X16950000Y-11558000D01*
X16954500Y-9094000D02*
X16954500Y-9194000D01*
X16904500Y-9144000D02*
X17004500Y-9144000D01*
X16954500Y-9348000D02*
X16954500Y-9448000D01*
X16904500Y-9398000D02*
X17004500Y-9398000D01*
X16954500Y-9602000D02*
X16954500Y-9702000D01*
X16904500Y-9652000D02*
X17004500Y-9652000D01*
X12253321Y-7122521D02*
X12253321Y-7050679D01*
X12181479Y-7050679D01*
X12181479Y-7122521D01*
X12253321Y-7122521D01*
X12507321Y-7122521D02*
X12507321Y-7050679D01*
X12435479Y-7050679D01*
X12435479Y-7122521D01*
X12507321Y-7122521D01*
X12761321Y-7122521D02*
X12761321Y-7050679D01*
X12689479Y-7050679D01*
X12689479Y-7122521D01*
X12761321Y-7122521D01*
X13015321Y-7122521D02*
X13015321Y-7050679D01*
X12943479Y-7050679D01*
X12943479Y-7122521D01*
X13015321Y-7122521D01*
X13167721Y-11948521D02*
X13167721Y-11876679D01*
X13095879Y-11876679D01*
X13095879Y-11948521D01*
X13167721Y-11948521D01*
X13269321Y-7122521D02*
X13269321Y-7050679D01*
X13197479Y-7050679D01*
X13197479Y-7122521D01*
X13269321Y-7122521D01*
X13421721Y-11948521D02*
X13421721Y-11876679D01*
X13349879Y-11876679D01*
X13349879Y-11948521D01*
X13421721Y-11948521D01*
X13523321Y-7122521D02*
X13523321Y-7050679D01*
X13451479Y-7050679D01*
X13451479Y-7122521D01*
X13523321Y-7122521D01*
X13675721Y-11948521D02*
X13675721Y-11876679D01*
X13603879Y-11876679D01*
X13603879Y-11948521D01*
X13675721Y-11948521D01*
X13777321Y-7122521D02*
X13777321Y-7050679D01*
X13705479Y-7050679D01*
X13705479Y-7122521D01*
X13777321Y-7122521D01*
X13929721Y-11948521D02*
X13929721Y-11876679D01*
X13857879Y-11876679D01*
X13857879Y-11948521D01*
X13929721Y-11948521D01*
X14031321Y-7122521D02*
X14031321Y-7050679D01*
X13959479Y-7050679D01*
X13959479Y-7122521D01*
X14031321Y-7122521D01*
X14183721Y-11948521D02*
X14183721Y-11876679D01*
X14111879Y-11876679D01*
X14111879Y-11948521D01*
X14183721Y-11948521D01*
X14285321Y-7122521D02*
X14285321Y-7050679D01*
X14213479Y-7050679D01*
X14213479Y-7122521D01*
X14285321Y-7122521D01*
X14437721Y-11948521D02*
X14437721Y-11876679D01*
X14365879Y-11876679D01*
X14365879Y-11948521D01*
X14437721Y-11948521D01*
X14539321Y-7122521D02*
X14539321Y-7050679D01*
X14467479Y-7050679D01*
X14467479Y-7122521D01*
X14539321Y-7122521D01*
X14691721Y-11948521D02*
X14691721Y-11876679D01*
X14619879Y-11876679D01*
X14619879Y-11948521D01*
X14691721Y-11948521D01*
X14945721Y-7122521D02*
X14945721Y-7050679D01*
X14873879Y-7050679D01*
X14873879Y-7122521D01*
X14945721Y-7122521D01*
X14945721Y-11948521D02*
X14945721Y-11876679D01*
X14873879Y-11876679D01*
X14873879Y-11948521D01*
X14945721Y-11948521D01*
X15199721Y-7122521D02*
X15199721Y-7050679D01*
X15127879Y-7050679D01*
X15127879Y-7122521D01*
X15199721Y-7122521D01*
X15453721Y-7122521D02*
X15453721Y-7050679D01*
X15381879Y-7050679D01*
X15381879Y-7122521D01*
X15453721Y-7122521D01*
X15453721Y-11948521D02*
X15453721Y-11876679D01*
X15381879Y-11876679D01*
X15381879Y-11948521D01*
X15453721Y-11948521D01*
X15707721Y-7122521D02*
X15707721Y-7050679D01*
X15635879Y-7050679D01*
X15635879Y-7122521D01*
X15707721Y-7122521D01*
X15707721Y-11948521D02*
X15707721Y-11876679D01*
X15635879Y-11876679D01*
X15635879Y-11948521D01*
X15707721Y-11948521D01*
X15961721Y-7122521D02*
X15961721Y-7050679D01*
X15889879Y-7050679D01*
X15889879Y-7122521D01*
X15961721Y-7122521D01*
X15961721Y-11948521D02*
X15961721Y-11876679D01*
X15889879Y-11876679D01*
X15889879Y-11948521D01*
X15961721Y-11948521D01*
X16215721Y-7122521D02*
X16215721Y-7050679D01*
X16143879Y-7050679D01*
X16143879Y-7122521D01*
X16215721Y-7122521D01*
X16215721Y-11948521D02*
X16215721Y-11876679D01*
X16143879Y-11876679D01*
X16143879Y-11948521D01*
X16215721Y-11948521D01*
X16469721Y-7122521D02*
X16469721Y-7050679D01*
X16397879Y-7050679D01*
X16397879Y-7122521D01*
X16469721Y-7122521D01*
X16469721Y-11948521D02*
X16469721Y-11876679D01*
X16397879Y-11876679D01*
X16397879Y-11948521D01*
X16469721Y-11948521D01*
X16723721Y-7122521D02*
X16723721Y-7050679D01*
X16651879Y-7050679D01*
X16651879Y-7122521D01*
X16723721Y-7122521D01*
X16723721Y-11948521D02*
X16723721Y-11876679D01*
X16651879Y-11876679D01*
X16651879Y-11948521D01*
X16723721Y-11948521D01*
X16977721Y-11948521D02*
X16977721Y-11876679D01*
X16905879Y-11876679D01*
X16905879Y-11948521D01*
X16977721Y-11948521D01*
X17231721Y-7122521D02*
X17231721Y-7050679D01*
X17159879Y-7050679D01*
X17159879Y-7122521D01*
X17231721Y-7122521D01*
X17231721Y-11948521D02*
X17231721Y-11876679D01*
X17159879Y-11876679D01*
X17159879Y-11948521D01*
X17231721Y-11948521D01*
X17485721Y-7122521D02*
X17485721Y-7050679D01*
X17413879Y-7050679D01*
X17413879Y-7122521D01*
X17485721Y-7122521D01*
X17739721Y-7122521D02*
X17739721Y-7050679D01*
X17667879Y-7050679D01*
X17667879Y-7122521D01*
X17739721Y-7122521D01*
X17739721Y-11948521D02*
X17739721Y-11876679D01*
X17667879Y-11876679D01*
X17667879Y-11948521D01*
X17739721Y-11948521D01*
X17993721Y-7122521D02*
X17993721Y-7050679D01*
X17921879Y-7050679D01*
X17921879Y-7122521D01*
X17993721Y-7122521D01*
X17993721Y-11948521D02*
X17993721Y-11876679D01*
X17921879Y-11876679D01*
X17921879Y-11948521D01*
X17993721Y-11948521D01*
X18247721Y-7122521D02*
X18247721Y-7050679D01*
X18175879Y-7050679D01*
X18175879Y-7122521D01*
X18247721Y-7122521D01*
X18247721Y-11948521D02*
X18247721Y-11876679D01*
X18175879Y-11876679D01*
X18175879Y-11948521D01*
X18247721Y-11948521D01*
X18501721Y-7122521D02*
X18501721Y-7050679D01*
X18429879Y-7050679D01*
X18429879Y-7122521D01*
X18501721Y-7122521D01*
X18501721Y-11948521D02*
X18501721Y-11876679D01*
X18429879Y-11876679D01*
X18429879Y-11948521D01*
X18501721Y-11948521D01*
X18755721Y-7122521D02*
X18755721Y-7050679D01*
X18683879Y-7050679D01*
X18683879Y-7122521D01*
X18755721Y-7122521D01*
X18755721Y-11948521D02*
X18755721Y-11876679D01*
X18683879Y-11876679D01*
X18683879Y-11948521D01*
X18755721Y-11948521D01*
X19009721Y-7122521D02*
X19009721Y-7050679D01*
X18937879Y-7050679D01*
X18937879Y-7122521D01*
X19009721Y-7122521D01*
X19009721Y-11948521D02*
X19009721Y-11876679D01*
X18937879Y-11876679D01*
X18937879Y-11948521D01*
X19009721Y-11948521D01*
X19263721Y-11948521D02*
X19263721Y-11876679D01*
X19191879Y-11876679D01*
X19191879Y-11948521D01*
X19263721Y-11948521D01*
X19517721Y-11948521D02*
X19517721Y-11876679D01*
X19445879Y-11876679D01*
X19445879Y-11948521D01*
X19517721Y-11948521D01*
X19771721Y-7122521D02*
X19771721Y-7050679D01*
X19699879Y-7050679D01*
X19699879Y-7122521D01*
X19771721Y-7122521D01*
X19771721Y-7376521D02*
X19771721Y-7304679D01*
X19699879Y-7304679D01*
X19699879Y-7376521D01*
X19771721Y-7376521D01*
X19771721Y-7630521D02*
X19771721Y-7558679D01*
X19699879Y-7558679D01*
X19699879Y-7630521D01*
X19771721Y-7630521D01*
X19771721Y-7884521D02*
X19771721Y-7812679D01*
X19699879Y-7812679D01*
X19699879Y-7884521D01*
X19771721Y-7884521D01*
X19771721Y-8138521D02*
X19771721Y-8066679D01*
X19699879Y-8066679D01*
X19699879Y-8138521D01*
X19771721Y-8138521D01*
X19771721Y-8392521D02*
X19771721Y-8320679D01*
X19699879Y-8320679D01*
X19699879Y-8392521D01*
X19771721Y-8392521D01*
X19771721Y-8646521D02*
X19771721Y-8574679D01*
X19699879Y-8574679D01*
X19699879Y-8646521D01*
X19771721Y-8646521D01*
X19771721Y-8900521D02*
X19771721Y-8828679D01*
X19699879Y-8828679D01*
X19699879Y-8900521D01*
X19771721Y-8900521D01*
X19771721Y-9154521D02*
X19771721Y-9082679D01*
X19699879Y-9082679D01*
X19699879Y-9154521D01*
X19771721Y-9154521D01*
X19771721Y-9408521D02*
X19771721Y-9336679D01*
X19699879Y-9336679D01*
X19699879Y-9408521D01*
X19771721Y-9408521D01*
X19771721Y-9662521D02*
X19771721Y-9590679D01*
X19699879Y-9590679D01*
X19699879Y-9662521D01*
X19771721Y-9662521D01*
X19771721Y-9916521D02*
X19771721Y-9844679D01*
X19699879Y-9844679D01*
X19699879Y-9916521D01*
X19771721Y-9916521D01*
X19771721Y-10170521D02*
X19771721Y-10098679D01*
X19699879Y-10098679D01*
X19699879Y-10170521D01*
X19771721Y-10170521D01*
X19771721Y-10424521D02*
X19771721Y-10352679D01*
X19699879Y-10352679D01*
X19699879Y-10424521D01*
X19771721Y-10424521D01*
X19771721Y-10678521D02*
X19771721Y-10606679D01*
X19699879Y-10606679D01*
X19699879Y-10678521D01*
X19771721Y-10678521D01*
X19771721Y-10932521D02*
X19771721Y-10860679D01*
X19699879Y-10860679D01*
X19699879Y-10932521D01*
X19771721Y-10932521D01*
X19771721Y-11186521D02*
X19771721Y-11114679D01*
X19699879Y-11114679D01*
X19699879Y-11186521D01*
X19771721Y-11186521D01*
X19771721Y-11440521D02*
X19771721Y-11368679D01*
X19699879Y-11368679D01*
X19699879Y-11440521D01*
X19771721Y-11440521D01*
X20025721Y-7122521D02*
X20025721Y-7050679D01*
X19953879Y-7050679D01*
X19953879Y-7122521D01*
X20025721Y-7122521D01*
X20025721Y-7376521D02*
X20025721Y-7304679D01*
X19953879Y-7304679D01*
X19953879Y-7376521D01*
X20025721Y-7376521D01*
X20025721Y-7630521D02*
X20025721Y-7558679D01*
X19953879Y-7558679D01*
X19953879Y-7630521D01*
X20025721Y-7630521D01*
X20025721Y-7884521D02*
X20025721Y-7812679D01*
X19953879Y-7812679D01*
X19953879Y-7884521D01*
X20025721Y-7884521D01*
X20025721Y-8138521D02*
X20025721Y-8066679D01*
X19953879Y-8066679D01*
X19953879Y-8138521D01*
X20025721Y-8138521D01*
X20025721Y-8392521D02*
X20025721Y-8320679D01*
X19953879Y-8320679D01*
X19953879Y-8392521D01*
X20025721Y-8392521D01*
X20025721Y-8646521D02*
X20025721Y-8574679D01*
X19953879Y-8574679D01*
X19953879Y-8646521D01*
X20025721Y-8646521D01*
X20025721Y-8900521D02*
X20025721Y-8828679D01*
X19953879Y-8828679D01*
X19953879Y-8900521D01*
X20025721Y-8900521D01*
X20025721Y-9154521D02*
X20025721Y-9082679D01*
X19953879Y-9082679D01*
X19953879Y-9154521D01*
X20025721Y-9154521D01*
X20025721Y-9408521D02*
X20025721Y-9336679D01*
X19953879Y-9336679D01*
X19953879Y-9408521D01*
X20025721Y-9408521D01*
X20025721Y-9662521D02*
X20025721Y-9590679D01*
X19953879Y-9590679D01*
X19953879Y-9662521D01*
X20025721Y-9662521D01*
X20025721Y-9916521D02*
X20025721Y-9844679D01*
X19953879Y-9844679D01*
X19953879Y-9916521D01*
X20025721Y-9916521D01*
X20025721Y-10170521D02*
X20025721Y-10098679D01*
X19953879Y-10098679D01*
X19953879Y-10170521D01*
X20025721Y-10170521D01*
X20025721Y-10424521D02*
X20025721Y-10352679D01*
X19953879Y-10352679D01*
X19953879Y-10424521D01*
X20025721Y-10424521D01*
X20025721Y-10678521D02*
X20025721Y-10606679D01*
X19953879Y-10606679D01*
X19953879Y-10678521D01*
X20025721Y-10678521D01*
X20025721Y-10932521D02*
X20025721Y-10860679D01*
X19953879Y-10860679D01*
X19953879Y-10932521D01*
X20025721Y-10932521D01*
X20025721Y-11186521D02*
X20025721Y-11114679D01*
X19953879Y-11114679D01*
X19953879Y-11186521D01*
X20025721Y-11186521D01*
X20025721Y-11440521D02*
X20025721Y-11368679D01*
X19953879Y-11368679D01*
X19953879Y-11440521D01*
X20025721Y-11440521D01*
X15023223Y-8933223D02*
X15083223Y-8873223D01*
X15023223Y-8813223D01*
X14963223Y-8873223D01*
X15023223Y-8933223D01*
X15023223Y-9286777D02*
X15083223Y-9226777D01*
X15023223Y-9166777D01*
X14963223Y-9226777D01*
X15023223Y-9286777D01*
X15023223Y-10683223D02*
X15083223Y-10623223D01*
X15023223Y-10563223D01*
X14963223Y-10623223D01*
X15023223Y-10683223D01*
X15023223Y-11036777D02*
X15083223Y-10976777D01*
X15023223Y-10916777D01*
X14963223Y-10976777D01*
X15023223Y-11036777D01*
X15200000Y-9110000D02*
X15260000Y-9050000D01*
X15200000Y-8990000D01*
X15140000Y-9050000D01*
X15200000Y-9110000D01*
X15200000Y-10860000D02*
X15260000Y-10800000D01*
X15200000Y-10740000D01*
X15140000Y-10800000D01*
X15200000Y-10860000D01*
X15376777Y-8933223D02*
X15436777Y-8873223D01*
X15376777Y-8813223D01*
X15316777Y-8873223D01*
X15376777Y-8933223D01*
X15376777Y-9286777D02*
X15436777Y-9226777D01*
X15376777Y-9166777D01*
X15316777Y-9226777D01*
X15376777Y-9286777D01*
X15376777Y-10683223D02*
X15436777Y-10623223D01*
X15376777Y-10563223D01*
X15316777Y-10623223D01*
X15376777Y-10683223D01*
X15376777Y-11036777D02*
X15436777Y-10976777D01*
X15376777Y-10916777D01*
X15316777Y-10976777D01*
X15376777Y-11036777D01*
X18023223Y-8933223D02*
X18083223Y-8873223D01*
X18023223Y-8813223D01*
X17963223Y-8873223D01*
X18023223Y-8933223D01*
X18023223Y-9286777D02*
X18083223Y-9226777D01*
X18023223Y-9166777D01*
X17963223Y-9226777D01*
X18023223Y-9286777D01*
X18023223Y-10683223D02*
X18083223Y-10623223D01*
X18023223Y-10563223D01*
X17963223Y-10623223D01*
X18023223Y-10683223D01*
X18023223Y-11036777D02*
X18083223Y-10976777D01*
X18023223Y-10916777D01*
X17963223Y-10976777D01*
X18023223Y-11036777D01*
X18200000Y-9110000D02*
X18260000Y-9050000D01*
X18200000Y-8990000D01*
X18140000Y-9050000D01*
X18200000Y-9110000D01*
X18200000Y-10860000D02*
X18260000Y-10800000D01*
X18200000Y-10740000D01*
X18140000Y-10800000D01*
X18200000Y-10860000D01*
X18376777Y-8933223D02*
X18436777Y-8873223D01*
X18376777Y-8813223D01*
X18316777Y-8873223D01*
X18376777Y-8933223D01*
X18376777Y-9286777D02*
X18436777Y-9226777D01*
X18376777Y-9166777D01*
X18316777Y-9226777D01*
X18376777Y-9286777D01*
X18376777Y-10683223D02*
X18436777Y-10623223D01*
X18376777Y-10563223D01*
X18316777Y-10623223D01*
X18376777Y-10683223D01*
X18376777Y-11036777D02*
X18436777Y-10976777D01*
X18376777Y-10916777D01*
X18316777Y-10976777D01*
X18376777Y-11036777D01*
X13457800Y-9786600D02*
X13617800Y-9946600D01*
X13617800Y-9786600D02*
X13457800Y-9946600D01*
X13617800Y-9866600D02*
G75*
G03X13617800Y-9866600I-80000J0D01*
G01*
X10618600Y-7469000D02*
X11428600Y-8279000D01*
X11428600Y-7469000D02*
X10618600Y-8279000D01*
X11023600Y-7469000D02*
X11023600Y-8279000D01*
X10618600Y-7874000D02*
X11428600Y-7874000D01*
X11990200Y-7469000D02*
X12800200Y-8279000D01*
X12800200Y-7469000D02*
X11990200Y-8279000D01*
X12395200Y-7469000D02*
X12395200Y-8279000D01*
X11990200Y-7874000D02*
X12800200Y-7874000D01*
D13*
X10601729Y-12639814D02*
X10601729Y-12339814D01*
X10673157Y-12339814D01*
X10716014Y-12354100D01*
X10744586Y-12382671D01*
X10758871Y-12411243D01*
X10773157Y-12468386D01*
X10773157Y-12511243D01*
X10758871Y-12568386D01*
X10744586Y-12596957D01*
X10716014Y-12625529D01*
X10673157Y-12639814D01*
X10601729Y-12639814D01*
X10901729Y-12639814D02*
X10901729Y-12439814D01*
X10901729Y-12496957D02*
X10916014Y-12468386D01*
X10930300Y-12454100D01*
X10958871Y-12439814D01*
X10987443Y-12439814D01*
X11087443Y-12639814D02*
X11087443Y-12439814D01*
X11087443Y-12339814D02*
X11073157Y-12354100D01*
X11087443Y-12368386D01*
X11101729Y-12354100D01*
X11087443Y-12339814D01*
X11087443Y-12368386D01*
X11273157Y-12639814D02*
X11244586Y-12625529D01*
X11230300Y-12596957D01*
X11230300Y-12339814D01*
X11430300Y-12639814D02*
X11401728Y-12625529D01*
X11387443Y-12596957D01*
X11387443Y-12339814D01*
X11773157Y-12639814D02*
X11773157Y-12339814D01*
X11873157Y-12554100D01*
X11973157Y-12339814D01*
X11973157Y-12639814D01*
X12244586Y-12639814D02*
X12244586Y-12482671D01*
X12230300Y-12454100D01*
X12201728Y-12439814D01*
X12144586Y-12439814D01*
X12116014Y-12454100D01*
X12244586Y-12625529D02*
X12216014Y-12639814D01*
X12144586Y-12639814D01*
X12116014Y-12625529D01*
X12101728Y-12596957D01*
X12101728Y-12568386D01*
X12116014Y-12539814D01*
X12144586Y-12525529D01*
X12216014Y-12525529D01*
X12244586Y-12511243D01*
X12387443Y-12439814D02*
X12387443Y-12739814D01*
X12387443Y-12454100D02*
X12416014Y-12439814D01*
X12473157Y-12439814D01*
X12501728Y-12454100D01*
X12516014Y-12468386D01*
X12530300Y-12496957D01*
X12530300Y-12582671D01*
X12516014Y-12611243D01*
X12501728Y-12625529D01*
X12473157Y-12639814D01*
X12416014Y-12639814D01*
X12387443Y-12625529D01*
X12658871Y-12611243D02*
X12673157Y-12625529D01*
X12658871Y-12639814D01*
X12644586Y-12625529D01*
X12658871Y-12611243D01*
X12658871Y-12639814D01*
X12658871Y-12454100D02*
X12673157Y-12468386D01*
X12658871Y-12482671D01*
X12644586Y-12468386D01*
X12658871Y-12454100D01*
X12658871Y-12482671D01*
X10300300Y-13119100D02*
X10330300Y-13149100D01*
X10330300Y-13119100D02*
X10300300Y-13149100D01*
X10658871Y-12969814D02*
X10687443Y-12969814D01*
X10716014Y-12984100D01*
X10730300Y-12998386D01*
X10744586Y-13026957D01*
X10758871Y-13084100D01*
X10758871Y-13155529D01*
X10744586Y-13212671D01*
X10730300Y-13241243D01*
X10716014Y-13255529D01*
X10687443Y-13269814D01*
X10658871Y-13269814D01*
X10630300Y-13255529D01*
X10616014Y-13241243D01*
X10601729Y-13212671D01*
X10587443Y-13155529D01*
X10587443Y-13084100D01*
X10601729Y-13026957D01*
X10616014Y-12998386D01*
X10630300Y-12984100D01*
X10658871Y-12969814D01*
X10887443Y-13241243D02*
X10901729Y-13255529D01*
X10887443Y-13269814D01*
X10873157Y-13255529D01*
X10887443Y-13241243D01*
X10887443Y-13269814D01*
X11001728Y-12969814D02*
X11187443Y-12969814D01*
X11087443Y-13084100D01*
X11130300Y-13084100D01*
X11158871Y-13098386D01*
X11173157Y-13112671D01*
X11187443Y-13141243D01*
X11187443Y-13212671D01*
X11173157Y-13241243D01*
X11158871Y-13255529D01*
X11130300Y-13269814D01*
X11044586Y-13269814D01*
X11016014Y-13255529D01*
X11001728Y-13241243D01*
X11373157Y-12969814D02*
X11401728Y-12969814D01*
X11430300Y-12984100D01*
X11444586Y-12998386D01*
X11458871Y-13026957D01*
X11473157Y-13084100D01*
X11473157Y-13155529D01*
X11458871Y-13212671D01*
X11444586Y-13241243D01*
X11430300Y-13255529D01*
X11401728Y-13269814D01*
X11373157Y-13269814D01*
X11344586Y-13255529D01*
X11330300Y-13241243D01*
X11316014Y-13212671D01*
X11301728Y-13155529D01*
X11301728Y-13084100D01*
X11316014Y-13026957D01*
X11330300Y-12998386D01*
X11344586Y-12984100D01*
X11373157Y-12969814D01*
X11601728Y-13269814D02*
X11601728Y-13069814D01*
X11601728Y-13098386D02*
X11616014Y-13084100D01*
X11644586Y-13069814D01*
X11687443Y-13069814D01*
X11716014Y-13084100D01*
X11730300Y-13112671D01*
X11730300Y-13269814D01*
X11730300Y-13112671D02*
X11744586Y-13084100D01*
X11773157Y-13069814D01*
X11816014Y-13069814D01*
X11844586Y-13084100D01*
X11858871Y-13112671D01*
X11858871Y-13269814D01*
X12001728Y-13269814D02*
X12001728Y-13069814D01*
X12001728Y-13098386D02*
X12016014Y-13084100D01*
X12044586Y-13069814D01*
X12087443Y-13069814D01*
X12116014Y-13084100D01*
X12130300Y-13112671D01*
X12130300Y-13269814D01*
X12130300Y-13112671D02*
X12144586Y-13084100D01*
X12173157Y-13069814D01*
X12216014Y-13069814D01*
X12244586Y-13084100D01*
X12258871Y-13112671D01*
X12258871Y-13269814D01*
X12844586Y-12955529D02*
X12587443Y-13341243D01*
X13230300Y-12969814D02*
X13258871Y-12969814D01*
X13287443Y-12984100D01*
X13301728Y-12998386D01*
X13316014Y-13026957D01*
X13330300Y-13084100D01*
X13330300Y-13155529D01*
X13316014Y-13212671D01*
X13301728Y-13241243D01*
X13287443Y-13255529D01*
X13258871Y-13269814D01*
X13230300Y-13269814D01*
X13201728Y-13255529D01*
X13187443Y-13241243D01*
X13173157Y-13212671D01*
X13158871Y-13155529D01*
X13158871Y-13084100D01*
X13173157Y-13026957D01*
X13187443Y-12998386D01*
X13201728Y-12984100D01*
X13230300Y-12969814D01*
X13458871Y-13241243D02*
X13473157Y-13255529D01*
X13458871Y-13269814D01*
X13444586Y-13255529D01*
X13458871Y-13241243D01*
X13458871Y-13269814D01*
X13658871Y-12969814D02*
X13687443Y-12969814D01*
X13716014Y-12984100D01*
X13730300Y-12998386D01*
X13744585Y-13026957D01*
X13758871Y-13084100D01*
X13758871Y-13155529D01*
X13744585Y-13212671D01*
X13730300Y-13241243D01*
X13716014Y-13255529D01*
X13687443Y-13269814D01*
X13658871Y-13269814D01*
X13630300Y-13255529D01*
X13616014Y-13241243D01*
X13601728Y-13212671D01*
X13587443Y-13155529D01*
X13587443Y-13084100D01*
X13601728Y-13026957D01*
X13616014Y-12998386D01*
X13630300Y-12984100D01*
X13658871Y-12969814D01*
X14044585Y-13269814D02*
X13873157Y-13269814D01*
X13958871Y-13269814D02*
X13958871Y-12969814D01*
X13930300Y-13012671D01*
X13901728Y-13041243D01*
X13873157Y-13055529D01*
X14158871Y-12998386D02*
X14173157Y-12984100D01*
X14201728Y-12969814D01*
X14273157Y-12969814D01*
X14301728Y-12984100D01*
X14316014Y-12998386D01*
X14330300Y-13026957D01*
X14330300Y-13055529D01*
X14316014Y-13098386D01*
X14144585Y-13269814D01*
X14330300Y-13269814D01*
X14444586Y-12969814D02*
X14444586Y-13026957D01*
X14558871Y-12969814D02*
X14558871Y-13026957D01*
X15001728Y-13384100D02*
X14987443Y-13369814D01*
X14958871Y-13326957D01*
X14944585Y-13298386D01*
X14930300Y-13255529D01*
X14916014Y-13184100D01*
X14916014Y-13126957D01*
X14930300Y-13055529D01*
X14944585Y-13012671D01*
X14958871Y-12984100D01*
X14987443Y-12941243D01*
X15001728Y-12926957D01*
X15130300Y-13269814D02*
X15187443Y-13269814D01*
X15216014Y-13255529D01*
X15230300Y-13241243D01*
X15258871Y-13198386D01*
X15273157Y-13141243D01*
X15273157Y-13026957D01*
X15258871Y-12998386D01*
X15244585Y-12984100D01*
X15216014Y-12969814D01*
X15158871Y-12969814D01*
X15130300Y-12984100D01*
X15116014Y-12998386D01*
X15101728Y-13026957D01*
X15101728Y-13098386D01*
X15116014Y-13126957D01*
X15130300Y-13141243D01*
X15158871Y-13155529D01*
X15216014Y-13155529D01*
X15244585Y-13141243D01*
X15258871Y-13126957D01*
X15273157Y-13098386D01*
X15416014Y-13269814D02*
X15473157Y-13269814D01*
X15501728Y-13255529D01*
X15516014Y-13241243D01*
X15544585Y-13198386D01*
X15558871Y-13141243D01*
X15558871Y-13026957D01*
X15544585Y-12998386D01*
X15530300Y-12984100D01*
X15501728Y-12969814D01*
X15444585Y-12969814D01*
X15416014Y-12984100D01*
X15401728Y-12998386D01*
X15387443Y-13026957D01*
X15387443Y-13098386D01*
X15401728Y-13126957D01*
X15416014Y-13141243D01*
X15444585Y-13155529D01*
X15501728Y-13155529D01*
X15530300Y-13141243D01*
X15544585Y-13126957D01*
X15558871Y-13098386D01*
X15916014Y-13269814D02*
X15916014Y-12969814D01*
X16044585Y-13269814D02*
X16044585Y-13112671D01*
X16030300Y-13084100D01*
X16001728Y-13069814D01*
X15958871Y-13069814D01*
X15930300Y-13084100D01*
X15916014Y-13098386D01*
X16230300Y-13269814D02*
X16201728Y-13255529D01*
X16187443Y-13241243D01*
X16173157Y-13212671D01*
X16173157Y-13126957D01*
X16187443Y-13098386D01*
X16201728Y-13084100D01*
X16230300Y-13069814D01*
X16273157Y-13069814D01*
X16301728Y-13084100D01*
X16316014Y-13098386D01*
X16330300Y-13126957D01*
X16330300Y-13212671D01*
X16316014Y-13241243D01*
X16301728Y-13255529D01*
X16273157Y-13269814D01*
X16230300Y-13269814D01*
X16501728Y-13269814D02*
X16473157Y-13255529D01*
X16458871Y-13226957D01*
X16458871Y-12969814D01*
X16730300Y-13255529D02*
X16701728Y-13269814D01*
X16644586Y-13269814D01*
X16616014Y-13255529D01*
X16601728Y-13226957D01*
X16601728Y-13112671D01*
X16616014Y-13084100D01*
X16644586Y-13069814D01*
X16701728Y-13069814D01*
X16730300Y-13084100D01*
X16744586Y-13112671D01*
X16744586Y-13141243D01*
X16601728Y-13169814D01*
X16858871Y-13255529D02*
X16887443Y-13269814D01*
X16944586Y-13269814D01*
X16973157Y-13255529D01*
X16987443Y-13226957D01*
X16987443Y-13212671D01*
X16973157Y-13184100D01*
X16944586Y-13169814D01*
X16901729Y-13169814D01*
X16873157Y-13155529D01*
X16858871Y-13126957D01*
X16858871Y-13112671D01*
X16873157Y-13084100D01*
X16901729Y-13069814D01*
X16944586Y-13069814D01*
X16973157Y-13084100D01*
X17087443Y-13384100D02*
X17101729Y-13369814D01*
X17130300Y-13326957D01*
X17144586Y-13298386D01*
X17158871Y-13255529D01*
X17173157Y-13184100D01*
X17173157Y-13126957D01*
X17158871Y-13055529D01*
X17144586Y-13012671D01*
X17130300Y-12984100D01*
X17101729Y-12941243D01*
X17087443Y-12926957D01*
X10330300Y-13530100D02*
G75*
G03X10330300Y-13530100I-20000J0D01*
G01*
X10658871Y-13365814D02*
X10687443Y-13365814D01*
X10716014Y-13380100D01*
X10730300Y-13394386D01*
X10744586Y-13422957D01*
X10758871Y-13480100D01*
X10758871Y-13551529D01*
X10744586Y-13608671D01*
X10730300Y-13637243D01*
X10716014Y-13651529D01*
X10687443Y-13665814D01*
X10658871Y-13665814D01*
X10630300Y-13651529D01*
X10616014Y-13637243D01*
X10601729Y-13608671D01*
X10587443Y-13551529D01*
X10587443Y-13480100D01*
X10601729Y-13422957D01*
X10616014Y-13394386D01*
X10630300Y-13380100D01*
X10658871Y-13365814D01*
X10887443Y-13637243D02*
X10901729Y-13651529D01*
X10887443Y-13665814D01*
X10873157Y-13651529D01*
X10887443Y-13637243D01*
X10887443Y-13665814D01*
X11158871Y-13465814D02*
X11158871Y-13665814D01*
X11087443Y-13351529D02*
X11016014Y-13565814D01*
X11201728Y-13565814D01*
X11373157Y-13365814D02*
X11401728Y-13365814D01*
X11430300Y-13380100D01*
X11444586Y-13394386D01*
X11458871Y-13422957D01*
X11473157Y-13480100D01*
X11473157Y-13551529D01*
X11458871Y-13608671D01*
X11444586Y-13637243D01*
X11430300Y-13651529D01*
X11401728Y-13665814D01*
X11373157Y-13665814D01*
X11344586Y-13651529D01*
X11330300Y-13637243D01*
X11316014Y-13608671D01*
X11301728Y-13551529D01*
X11301728Y-13480100D01*
X11316014Y-13422957D01*
X11330300Y-13394386D01*
X11344586Y-13380100D01*
X11373157Y-13365814D01*
X11601728Y-13665814D02*
X11601728Y-13465814D01*
X11601728Y-13494386D02*
X11616014Y-13480100D01*
X11644586Y-13465814D01*
X11687443Y-13465814D01*
X11716014Y-13480100D01*
X11730300Y-13508671D01*
X11730300Y-13665814D01*
X11730300Y-13508671D02*
X11744586Y-13480100D01*
X11773157Y-13465814D01*
X11816014Y-13465814D01*
X11844586Y-13480100D01*
X11858871Y-13508671D01*
X11858871Y-13665814D01*
X12001728Y-13665814D02*
X12001728Y-13465814D01*
X12001728Y-13494386D02*
X12016014Y-13480100D01*
X12044586Y-13465814D01*
X12087443Y-13465814D01*
X12116014Y-13480100D01*
X12130300Y-13508671D01*
X12130300Y-13665814D01*
X12130300Y-13508671D02*
X12144586Y-13480100D01*
X12173157Y-13465814D01*
X12216014Y-13465814D01*
X12244586Y-13480100D01*
X12258871Y-13508671D01*
X12258871Y-13665814D01*
X12844586Y-13351529D02*
X12587443Y-13737243D01*
X13230300Y-13365814D02*
X13258871Y-13365814D01*
X13287443Y-13380100D01*
X13301728Y-13394386D01*
X13316014Y-13422957D01*
X13330300Y-13480100D01*
X13330300Y-13551529D01*
X13316014Y-13608671D01*
X13301728Y-13637243D01*
X13287443Y-13651529D01*
X13258871Y-13665814D01*
X13230300Y-13665814D01*
X13201728Y-13651529D01*
X13187443Y-13637243D01*
X13173157Y-13608671D01*
X13158871Y-13551529D01*
X13158871Y-13480100D01*
X13173157Y-13422957D01*
X13187443Y-13394386D01*
X13201728Y-13380100D01*
X13230300Y-13365814D01*
X13458871Y-13637243D02*
X13473157Y-13651529D01*
X13458871Y-13665814D01*
X13444586Y-13651529D01*
X13458871Y-13637243D01*
X13458871Y-13665814D01*
X13658871Y-13365814D02*
X13687443Y-13365814D01*
X13716014Y-13380100D01*
X13730300Y-13394386D01*
X13744585Y-13422957D01*
X13758871Y-13480100D01*
X13758871Y-13551529D01*
X13744585Y-13608671D01*
X13730300Y-13637243D01*
X13716014Y-13651529D01*
X13687443Y-13665814D01*
X13658871Y-13665814D01*
X13630300Y-13651529D01*
X13616014Y-13637243D01*
X13601728Y-13608671D01*
X13587443Y-13551529D01*
X13587443Y-13480100D01*
X13601728Y-13422957D01*
X13616014Y-13394386D01*
X13630300Y-13380100D01*
X13658871Y-13365814D01*
X14044585Y-13665814D02*
X13873157Y-13665814D01*
X13958871Y-13665814D02*
X13958871Y-13365814D01*
X13930300Y-13408671D01*
X13901728Y-13437243D01*
X13873157Y-13451529D01*
X14301728Y-13365814D02*
X14244585Y-13365814D01*
X14216014Y-13380100D01*
X14201728Y-13394386D01*
X14173157Y-13437243D01*
X14158871Y-13494386D01*
X14158871Y-13608671D01*
X14173157Y-13637243D01*
X14187443Y-13651529D01*
X14216014Y-13665814D01*
X14273157Y-13665814D01*
X14301728Y-13651529D01*
X14316014Y-13637243D01*
X14330300Y-13608671D01*
X14330300Y-13537243D01*
X14316014Y-13508671D01*
X14301728Y-13494386D01*
X14273157Y-13480100D01*
X14216014Y-13480100D01*
X14187443Y-13494386D01*
X14173157Y-13508671D01*
X14158871Y-13537243D01*
X14444586Y-13365814D02*
X14444586Y-13422957D01*
X14558871Y-13365814D02*
X14558871Y-13422957D01*
X15001728Y-13780100D02*
X14987443Y-13765814D01*
X14958871Y-13722957D01*
X14944585Y-13694386D01*
X14930300Y-13651529D01*
X14916014Y-13580100D01*
X14916014Y-13522957D01*
X14930300Y-13451529D01*
X14944585Y-13408671D01*
X14958871Y-13380100D01*
X14987443Y-13337243D01*
X15001728Y-13322957D01*
X15258871Y-13365814D02*
X15116014Y-13365814D01*
X15101728Y-13508671D01*
X15116014Y-13494386D01*
X15144585Y-13480100D01*
X15216014Y-13480100D01*
X15244585Y-13494386D01*
X15258871Y-13508671D01*
X15273157Y-13537243D01*
X15273157Y-13608671D01*
X15258871Y-13637243D01*
X15244585Y-13651529D01*
X15216014Y-13665814D01*
X15144585Y-13665814D01*
X15116014Y-13651529D01*
X15101728Y-13637243D01*
X15458871Y-13365814D02*
X15487443Y-13365814D01*
X15516014Y-13380100D01*
X15530300Y-13394386D01*
X15544585Y-13422957D01*
X15558871Y-13480100D01*
X15558871Y-13551529D01*
X15544585Y-13608671D01*
X15530300Y-13637243D01*
X15516014Y-13651529D01*
X15487443Y-13665814D01*
X15458871Y-13665814D01*
X15430300Y-13651529D01*
X15416014Y-13637243D01*
X15401728Y-13608671D01*
X15387443Y-13551529D01*
X15387443Y-13480100D01*
X15401728Y-13422957D01*
X15416014Y-13394386D01*
X15430300Y-13380100D01*
X15458871Y-13365814D01*
X15916014Y-13665814D02*
X15916014Y-13365814D01*
X16044585Y-13665814D02*
X16044585Y-13508671D01*
X16030300Y-13480100D01*
X16001728Y-13465814D01*
X15958871Y-13465814D01*
X15930300Y-13480100D01*
X15916014Y-13494386D01*
X16230300Y-13665814D02*
X16201728Y-13651529D01*
X16187443Y-13637243D01*
X16173157Y-13608671D01*
X16173157Y-13522957D01*
X16187443Y-13494386D01*
X16201728Y-13480100D01*
X16230300Y-13465814D01*
X16273157Y-13465814D01*
X16301728Y-13480100D01*
X16316014Y-13494386D01*
X16330300Y-13522957D01*
X16330300Y-13608671D01*
X16316014Y-13637243D01*
X16301728Y-13651529D01*
X16273157Y-13665814D01*
X16230300Y-13665814D01*
X16501728Y-13665814D02*
X16473157Y-13651529D01*
X16458871Y-13622957D01*
X16458871Y-13365814D01*
X16730300Y-13651529D02*
X16701728Y-13665814D01*
X16644586Y-13665814D01*
X16616014Y-13651529D01*
X16601728Y-13622957D01*
X16601728Y-13508671D01*
X16616014Y-13480100D01*
X16644586Y-13465814D01*
X16701728Y-13465814D01*
X16730300Y-13480100D01*
X16744586Y-13508671D01*
X16744586Y-13537243D01*
X16601728Y-13565814D01*
X16858871Y-13651529D02*
X16887443Y-13665814D01*
X16944586Y-13665814D01*
X16973157Y-13651529D01*
X16987443Y-13622957D01*
X16987443Y-13608671D01*
X16973157Y-13580100D01*
X16944586Y-13565814D01*
X16901729Y-13565814D01*
X16873157Y-13551529D01*
X16858871Y-13522957D01*
X16858871Y-13508671D01*
X16873157Y-13480100D01*
X16901729Y-13465814D01*
X16944586Y-13465814D01*
X16973157Y-13480100D01*
X17087443Y-13780100D02*
X17101729Y-13765814D01*
X17130300Y-13722957D01*
X17144586Y-13694386D01*
X17158871Y-13651529D01*
X17173157Y-13580100D01*
X17173157Y-13522957D01*
X17158871Y-13451529D01*
X17144586Y-13408671D01*
X17130300Y-13380100D01*
X17101729Y-13337243D01*
X17087443Y-13322957D01*
X10280300Y-13876100D02*
X10280300Y-13976100D01*
X10230300Y-13926100D02*
X10330300Y-13926100D01*
X10758871Y-14061814D02*
X10587443Y-14061814D01*
X10673157Y-14061814D02*
X10673157Y-13761814D01*
X10644586Y-13804671D01*
X10616014Y-13833243D01*
X10587443Y-13847529D01*
X10887443Y-14033243D02*
X10901729Y-14047529D01*
X10887443Y-14061814D01*
X10873157Y-14047529D01*
X10887443Y-14033243D01*
X10887443Y-14061814D01*
X11087443Y-13761814D02*
X11116014Y-13761814D01*
X11144586Y-13776100D01*
X11158871Y-13790386D01*
X11173157Y-13818957D01*
X11187443Y-13876100D01*
X11187443Y-13947529D01*
X11173157Y-14004671D01*
X11158871Y-14033243D01*
X11144586Y-14047529D01*
X11116014Y-14061814D01*
X11087443Y-14061814D01*
X11058871Y-14047529D01*
X11044586Y-14033243D01*
X11030300Y-14004671D01*
X11016014Y-13947529D01*
X11016014Y-13876100D01*
X11030300Y-13818957D01*
X11044586Y-13790386D01*
X11058871Y-13776100D01*
X11087443Y-13761814D01*
X11373157Y-13761814D02*
X11401728Y-13761814D01*
X11430300Y-13776100D01*
X11444586Y-13790386D01*
X11458871Y-13818957D01*
X11473157Y-13876100D01*
X11473157Y-13947529D01*
X11458871Y-14004671D01*
X11444586Y-14033243D01*
X11430300Y-14047529D01*
X11401728Y-14061814D01*
X11373157Y-14061814D01*
X11344586Y-14047529D01*
X11330300Y-14033243D01*
X11316014Y-14004671D01*
X11301728Y-13947529D01*
X11301728Y-13876100D01*
X11316014Y-13818957D01*
X11330300Y-13790386D01*
X11344586Y-13776100D01*
X11373157Y-13761814D01*
X11601728Y-14061814D02*
X11601728Y-13861814D01*
X11601728Y-13890386D02*
X11616014Y-13876100D01*
X11644586Y-13861814D01*
X11687443Y-13861814D01*
X11716014Y-13876100D01*
X11730300Y-13904671D01*
X11730300Y-14061814D01*
X11730300Y-13904671D02*
X11744586Y-13876100D01*
X11773157Y-13861814D01*
X11816014Y-13861814D01*
X11844586Y-13876100D01*
X11858871Y-13904671D01*
X11858871Y-14061814D01*
X12001728Y-14061814D02*
X12001728Y-13861814D01*
X12001728Y-13890386D02*
X12016014Y-13876100D01*
X12044586Y-13861814D01*
X12087443Y-13861814D01*
X12116014Y-13876100D01*
X12130300Y-13904671D01*
X12130300Y-14061814D01*
X12130300Y-13904671D02*
X12144586Y-13876100D01*
X12173157Y-13861814D01*
X12216014Y-13861814D01*
X12244586Y-13876100D01*
X12258871Y-13904671D01*
X12258871Y-14061814D01*
X12844586Y-13747529D02*
X12587443Y-14133243D01*
X13230300Y-13761814D02*
X13258871Y-13761814D01*
X13287443Y-13776100D01*
X13301728Y-13790386D01*
X13316014Y-13818957D01*
X13330300Y-13876100D01*
X13330300Y-13947529D01*
X13316014Y-14004671D01*
X13301728Y-14033243D01*
X13287443Y-14047529D01*
X13258871Y-14061814D01*
X13230300Y-14061814D01*
X13201728Y-14047529D01*
X13187443Y-14033243D01*
X13173157Y-14004671D01*
X13158871Y-13947529D01*
X13158871Y-13876100D01*
X13173157Y-13818957D01*
X13187443Y-13790386D01*
X13201728Y-13776100D01*
X13230300Y-13761814D01*
X13458871Y-14033243D02*
X13473157Y-14047529D01*
X13458871Y-14061814D01*
X13444586Y-14047529D01*
X13458871Y-14033243D01*
X13458871Y-14061814D01*
X13658871Y-13761814D02*
X13687443Y-13761814D01*
X13716014Y-13776100D01*
X13730300Y-13790386D01*
X13744585Y-13818957D01*
X13758871Y-13876100D01*
X13758871Y-13947529D01*
X13744585Y-14004671D01*
X13730300Y-14033243D01*
X13716014Y-14047529D01*
X13687443Y-14061814D01*
X13658871Y-14061814D01*
X13630300Y-14047529D01*
X13616014Y-14033243D01*
X13601728Y-14004671D01*
X13587443Y-13947529D01*
X13587443Y-13876100D01*
X13601728Y-13818957D01*
X13616014Y-13790386D01*
X13630300Y-13776100D01*
X13658871Y-13761814D01*
X13858871Y-13761814D02*
X14044585Y-13761814D01*
X13944585Y-13876100D01*
X13987443Y-13876100D01*
X14016014Y-13890386D01*
X14030300Y-13904671D01*
X14044585Y-13933243D01*
X14044585Y-14004671D01*
X14030300Y-14033243D01*
X14016014Y-14047529D01*
X13987443Y-14061814D01*
X13901728Y-14061814D01*
X13873157Y-14047529D01*
X13858871Y-14033243D01*
X14187443Y-14061814D02*
X14244585Y-14061814D01*
X14273157Y-14047529D01*
X14287443Y-14033243D01*
X14316014Y-13990386D01*
X14330300Y-13933243D01*
X14330300Y-13818957D01*
X14316014Y-13790386D01*
X14301728Y-13776100D01*
X14273157Y-13761814D01*
X14216014Y-13761814D01*
X14187443Y-13776100D01*
X14173157Y-13790386D01*
X14158871Y-13818957D01*
X14158871Y-13890386D01*
X14173157Y-13918957D01*
X14187443Y-13933243D01*
X14216014Y-13947529D01*
X14273157Y-13947529D01*
X14301728Y-13933243D01*
X14316014Y-13918957D01*
X14330300Y-13890386D01*
X14444586Y-13761814D02*
X14444586Y-13818957D01*
X14558871Y-13761814D02*
X14558871Y-13818957D01*
X15001728Y-14176100D02*
X14987443Y-14161814D01*
X14958871Y-14118957D01*
X14944585Y-14090386D01*
X14930300Y-14047529D01*
X14916014Y-13976100D01*
X14916014Y-13918957D01*
X14930300Y-13847529D01*
X14944585Y-13804671D01*
X14958871Y-13776100D01*
X14987443Y-13733243D01*
X15001728Y-13718957D01*
X15101728Y-13790386D02*
X15116014Y-13776100D01*
X15144585Y-13761814D01*
X15216014Y-13761814D01*
X15244585Y-13776100D01*
X15258871Y-13790386D01*
X15273157Y-13818957D01*
X15273157Y-13847529D01*
X15258871Y-13890386D01*
X15087443Y-14061814D01*
X15273157Y-14061814D01*
X15387443Y-13790386D02*
X15401728Y-13776100D01*
X15430300Y-13761814D01*
X15501728Y-13761814D01*
X15530300Y-13776100D01*
X15544585Y-13790386D01*
X15558871Y-13818957D01*
X15558871Y-13847529D01*
X15544585Y-13890386D01*
X15373157Y-14061814D01*
X15558871Y-14061814D01*
X15916014Y-14061814D02*
X15916014Y-13761814D01*
X16044585Y-14061814D02*
X16044585Y-13904671D01*
X16030300Y-13876100D01*
X16001728Y-13861814D01*
X15958871Y-13861814D01*
X15930300Y-13876100D01*
X15916014Y-13890386D01*
X16230300Y-14061814D02*
X16201728Y-14047529D01*
X16187443Y-14033243D01*
X16173157Y-14004671D01*
X16173157Y-13918957D01*
X16187443Y-13890386D01*
X16201728Y-13876100D01*
X16230300Y-13861814D01*
X16273157Y-13861814D01*
X16301728Y-13876100D01*
X16316014Y-13890386D01*
X16330300Y-13918957D01*
X16330300Y-14004671D01*
X16316014Y-14033243D01*
X16301728Y-14047529D01*
X16273157Y-14061814D01*
X16230300Y-14061814D01*
X16501728Y-14061814D02*
X16473157Y-14047529D01*
X16458871Y-14018957D01*
X16458871Y-13761814D01*
X16730300Y-14047529D02*
X16701728Y-14061814D01*
X16644586Y-14061814D01*
X16616014Y-14047529D01*
X16601728Y-14018957D01*
X16601728Y-13904671D01*
X16616014Y-13876100D01*
X16644586Y-13861814D01*
X16701728Y-13861814D01*
X16730300Y-13876100D01*
X16744586Y-13904671D01*
X16744586Y-13933243D01*
X16601728Y-13961814D01*
X16858871Y-14047529D02*
X16887443Y-14061814D01*
X16944586Y-14061814D01*
X16973157Y-14047529D01*
X16987443Y-14018957D01*
X16987443Y-14004671D01*
X16973157Y-13976100D01*
X16944586Y-13961814D01*
X16901729Y-13961814D01*
X16873157Y-13947529D01*
X16858871Y-13918957D01*
X16858871Y-13904671D01*
X16873157Y-13876100D01*
X16901729Y-13861814D01*
X16944586Y-13861814D01*
X16973157Y-13876100D01*
X17087443Y-14176100D02*
X17101729Y-14161814D01*
X17130300Y-14118957D01*
X17144586Y-14090386D01*
X17158871Y-14047529D01*
X17173157Y-13976100D01*
X17173157Y-13918957D01*
X17158871Y-13847529D01*
X17144586Y-13804671D01*
X17130300Y-13776100D01*
X17101729Y-13733243D01*
X17087443Y-13718957D01*
X10315421Y-14358021D02*
X10315421Y-14286179D01*
X10243579Y-14286179D01*
X10243579Y-14358021D01*
X10315421Y-14358021D01*
X10758871Y-14457814D02*
X10587443Y-14457814D01*
X10673157Y-14457814D02*
X10673157Y-14157814D01*
X10644586Y-14200671D01*
X10616014Y-14229243D01*
X10587443Y-14243529D01*
X10887443Y-14429243D02*
X10901729Y-14443529D01*
X10887443Y-14457814D01*
X10873157Y-14443529D01*
X10887443Y-14429243D01*
X10887443Y-14457814D01*
X11087443Y-14157814D02*
X11116014Y-14157814D01*
X11144586Y-14172100D01*
X11158871Y-14186386D01*
X11173157Y-14214957D01*
X11187443Y-14272100D01*
X11187443Y-14343529D01*
X11173157Y-14400671D01*
X11158871Y-14429243D01*
X11144586Y-14443529D01*
X11116014Y-14457814D01*
X11087443Y-14457814D01*
X11058871Y-14443529D01*
X11044586Y-14429243D01*
X11030300Y-14400671D01*
X11016014Y-14343529D01*
X11016014Y-14272100D01*
X11030300Y-14214957D01*
X11044586Y-14186386D01*
X11058871Y-14172100D01*
X11087443Y-14157814D01*
X11301728Y-14186386D02*
X11316014Y-14172100D01*
X11344586Y-14157814D01*
X11416014Y-14157814D01*
X11444586Y-14172100D01*
X11458871Y-14186386D01*
X11473157Y-14214957D01*
X11473157Y-14243529D01*
X11458871Y-14286386D01*
X11287443Y-14457814D01*
X11473157Y-14457814D01*
X11601728Y-14457814D02*
X11601728Y-14257814D01*
X11601728Y-14286386D02*
X11616014Y-14272100D01*
X11644586Y-14257814D01*
X11687443Y-14257814D01*
X11716014Y-14272100D01*
X11730300Y-14300671D01*
X11730300Y-14457814D01*
X11730300Y-14300671D02*
X11744586Y-14272100D01*
X11773157Y-14257814D01*
X11816014Y-14257814D01*
X11844586Y-14272100D01*
X11858871Y-14300671D01*
X11858871Y-14457814D01*
X12001728Y-14457814D02*
X12001728Y-14257814D01*
X12001728Y-14286386D02*
X12016014Y-14272100D01*
X12044586Y-14257814D01*
X12087443Y-14257814D01*
X12116014Y-14272100D01*
X12130300Y-14300671D01*
X12130300Y-14457814D01*
X12130300Y-14300671D02*
X12144586Y-14272100D01*
X12173157Y-14257814D01*
X12216014Y-14257814D01*
X12244586Y-14272100D01*
X12258871Y-14300671D01*
X12258871Y-14457814D01*
X12844586Y-14143529D02*
X12587443Y-14529243D01*
X13230300Y-14157814D02*
X13258871Y-14157814D01*
X13287443Y-14172100D01*
X13301728Y-14186386D01*
X13316014Y-14214957D01*
X13330300Y-14272100D01*
X13330300Y-14343529D01*
X13316014Y-14400671D01*
X13301728Y-14429243D01*
X13287443Y-14443529D01*
X13258871Y-14457814D01*
X13230300Y-14457814D01*
X13201728Y-14443529D01*
X13187443Y-14429243D01*
X13173157Y-14400671D01*
X13158871Y-14343529D01*
X13158871Y-14272100D01*
X13173157Y-14214957D01*
X13187443Y-14186386D01*
X13201728Y-14172100D01*
X13230300Y-14157814D01*
X13458871Y-14429243D02*
X13473157Y-14443529D01*
X13458871Y-14457814D01*
X13444586Y-14443529D01*
X13458871Y-14429243D01*
X13458871Y-14457814D01*
X13658871Y-14157814D02*
X13687443Y-14157814D01*
X13716014Y-14172100D01*
X13730300Y-14186386D01*
X13744585Y-14214957D01*
X13758871Y-14272100D01*
X13758871Y-14343529D01*
X13744585Y-14400671D01*
X13730300Y-14429243D01*
X13716014Y-14443529D01*
X13687443Y-14457814D01*
X13658871Y-14457814D01*
X13630300Y-14443529D01*
X13616014Y-14429243D01*
X13601728Y-14400671D01*
X13587443Y-14343529D01*
X13587443Y-14272100D01*
X13601728Y-14214957D01*
X13616014Y-14186386D01*
X13630300Y-14172100D01*
X13658871Y-14157814D01*
X14016014Y-14257814D02*
X14016014Y-14457814D01*
X13944585Y-14143529D02*
X13873157Y-14357814D01*
X14058871Y-14357814D01*
X14230300Y-14157814D02*
X14258871Y-14157814D01*
X14287443Y-14172100D01*
X14301728Y-14186386D01*
X14316014Y-14214957D01*
X14330300Y-14272100D01*
X14330300Y-14343529D01*
X14316014Y-14400671D01*
X14301728Y-14429243D01*
X14287443Y-14443529D01*
X14258871Y-14457814D01*
X14230300Y-14457814D01*
X14201728Y-14443529D01*
X14187443Y-14429243D01*
X14173157Y-14400671D01*
X14158871Y-14343529D01*
X14158871Y-14272100D01*
X14173157Y-14214957D01*
X14187443Y-14186386D01*
X14201728Y-14172100D01*
X14230300Y-14157814D01*
X14444586Y-14157814D02*
X14444586Y-14214957D01*
X14558871Y-14157814D02*
X14558871Y-14214957D01*
X15001728Y-14572100D02*
X14987443Y-14557814D01*
X14958871Y-14514957D01*
X14944585Y-14486386D01*
X14930300Y-14443529D01*
X14916014Y-14372100D01*
X14916014Y-14314957D01*
X14930300Y-14243529D01*
X14944585Y-14200671D01*
X14958871Y-14172100D01*
X14987443Y-14129243D01*
X15001728Y-14114957D01*
X15158871Y-14286386D02*
X15130300Y-14272100D01*
X15116014Y-14257814D01*
X15101728Y-14229243D01*
X15101728Y-14214957D01*
X15116014Y-14186386D01*
X15130300Y-14172100D01*
X15158871Y-14157814D01*
X15216014Y-14157814D01*
X15244585Y-14172100D01*
X15258871Y-14186386D01*
X15273157Y-14214957D01*
X15273157Y-14229243D01*
X15258871Y-14257814D01*
X15244585Y-14272100D01*
X15216014Y-14286386D01*
X15158871Y-14286386D01*
X15130300Y-14300671D01*
X15116014Y-14314957D01*
X15101728Y-14343529D01*
X15101728Y-14400671D01*
X15116014Y-14429243D01*
X15130300Y-14443529D01*
X15158871Y-14457814D01*
X15216014Y-14457814D01*
X15244585Y-14443529D01*
X15258871Y-14429243D01*
X15273157Y-14400671D01*
X15273157Y-14343529D01*
X15258871Y-14314957D01*
X15244585Y-14300671D01*
X15216014Y-14286386D01*
X15530300Y-14157814D02*
X15473157Y-14157814D01*
X15444585Y-14172100D01*
X15430300Y-14186386D01*
X15401728Y-14229243D01*
X15387443Y-14286386D01*
X15387443Y-14400671D01*
X15401728Y-14429243D01*
X15416014Y-14443529D01*
X15444585Y-14457814D01*
X15501728Y-14457814D01*
X15530300Y-14443529D01*
X15544585Y-14429243D01*
X15558871Y-14400671D01*
X15558871Y-14329243D01*
X15544585Y-14300671D01*
X15530300Y-14286386D01*
X15501728Y-14272100D01*
X15444585Y-14272100D01*
X15416014Y-14286386D01*
X15401728Y-14300671D01*
X15387443Y-14329243D01*
X15916014Y-14457814D02*
X15916014Y-14157814D01*
X16044585Y-14457814D02*
X16044585Y-14300671D01*
X16030300Y-14272100D01*
X16001728Y-14257814D01*
X15958871Y-14257814D01*
X15930300Y-14272100D01*
X15916014Y-14286386D01*
X16230300Y-14457814D02*
X16201728Y-14443529D01*
X16187443Y-14429243D01*
X16173157Y-14400671D01*
X16173157Y-14314957D01*
X16187443Y-14286386D01*
X16201728Y-14272100D01*
X16230300Y-14257814D01*
X16273157Y-14257814D01*
X16301728Y-14272100D01*
X16316014Y-14286386D01*
X16330300Y-14314957D01*
X16330300Y-14400671D01*
X16316014Y-14429243D01*
X16301728Y-14443529D01*
X16273157Y-14457814D01*
X16230300Y-14457814D01*
X16501728Y-14457814D02*
X16473157Y-14443529D01*
X16458871Y-14414957D01*
X16458871Y-14157814D01*
X16730300Y-14443529D02*
X16701728Y-14457814D01*
X16644586Y-14457814D01*
X16616014Y-14443529D01*
X16601728Y-14414957D01*
X16601728Y-14300671D01*
X16616014Y-14272100D01*
X16644586Y-14257814D01*
X16701728Y-14257814D01*
X16730300Y-14272100D01*
X16744586Y-14300671D01*
X16744586Y-14329243D01*
X16601728Y-14357814D01*
X16858871Y-14443529D02*
X16887443Y-14457814D01*
X16944586Y-14457814D01*
X16973157Y-14443529D01*
X16987443Y-14414957D01*
X16987443Y-14400671D01*
X16973157Y-14372100D01*
X16944586Y-14357814D01*
X16901729Y-14357814D01*
X16873157Y-14343529D01*
X16858871Y-14314957D01*
X16858871Y-14300671D01*
X16873157Y-14272100D01*
X16901729Y-14257814D01*
X16944586Y-14257814D01*
X16973157Y-14272100D01*
X17087443Y-14572100D02*
X17101729Y-14557814D01*
X17130300Y-14514957D01*
X17144586Y-14486386D01*
X17158871Y-14443529D01*
X17173157Y-14372100D01*
X17173157Y-14314957D01*
X17158871Y-14243529D01*
X17144586Y-14200671D01*
X17130300Y-14172100D01*
X17101729Y-14129243D01*
X17087443Y-14114957D01*
X10270300Y-14778100D02*
X10330300Y-14718100D01*
X10270300Y-14658100D01*
X10210300Y-14718100D01*
X10270300Y-14778100D01*
X10758871Y-14853814D02*
X10587443Y-14853814D01*
X10673157Y-14853814D02*
X10673157Y-14553814D01*
X10644586Y-14596671D01*
X10616014Y-14625243D01*
X10587443Y-14639529D01*
X10887443Y-14825243D02*
X10901729Y-14839529D01*
X10887443Y-14853814D01*
X10873157Y-14839529D01*
X10887443Y-14825243D01*
X10887443Y-14853814D01*
X11016014Y-14582386D02*
X11030300Y-14568100D01*
X11058871Y-14553814D01*
X11130300Y-14553814D01*
X11158871Y-14568100D01*
X11173157Y-14582386D01*
X11187443Y-14610957D01*
X11187443Y-14639529D01*
X11173157Y-14682386D01*
X11001728Y-14853814D01*
X11187443Y-14853814D01*
X11373157Y-14553814D02*
X11401728Y-14553814D01*
X11430300Y-14568100D01*
X11444586Y-14582386D01*
X11458871Y-14610957D01*
X11473157Y-14668100D01*
X11473157Y-14739529D01*
X11458871Y-14796671D01*
X11444586Y-14825243D01*
X11430300Y-14839529D01*
X11401728Y-14853814D01*
X11373157Y-14853814D01*
X11344586Y-14839529D01*
X11330300Y-14825243D01*
X11316014Y-14796671D01*
X11301728Y-14739529D01*
X11301728Y-14668100D01*
X11316014Y-14610957D01*
X11330300Y-14582386D01*
X11344586Y-14568100D01*
X11373157Y-14553814D01*
X11601728Y-14853814D02*
X11601728Y-14653814D01*
X11601728Y-14682386D02*
X11616014Y-14668100D01*
X11644586Y-14653814D01*
X11687443Y-14653814D01*
X11716014Y-14668100D01*
X11730300Y-14696671D01*
X11730300Y-14853814D01*
X11730300Y-14696671D02*
X11744586Y-14668100D01*
X11773157Y-14653814D01*
X11816014Y-14653814D01*
X11844586Y-14668100D01*
X11858871Y-14696671D01*
X11858871Y-14853814D01*
X12001728Y-14853814D02*
X12001728Y-14653814D01*
X12001728Y-14682386D02*
X12016014Y-14668100D01*
X12044586Y-14653814D01*
X12087443Y-14653814D01*
X12116014Y-14668100D01*
X12130300Y-14696671D01*
X12130300Y-14853814D01*
X12130300Y-14696671D02*
X12144586Y-14668100D01*
X12173157Y-14653814D01*
X12216014Y-14653814D01*
X12244586Y-14668100D01*
X12258871Y-14696671D01*
X12258871Y-14853814D01*
X12844586Y-14539529D02*
X12587443Y-14925243D01*
X13230300Y-14553814D02*
X13258871Y-14553814D01*
X13287443Y-14568100D01*
X13301728Y-14582386D01*
X13316014Y-14610957D01*
X13330300Y-14668100D01*
X13330300Y-14739529D01*
X13316014Y-14796671D01*
X13301728Y-14825243D01*
X13287443Y-14839529D01*
X13258871Y-14853814D01*
X13230300Y-14853814D01*
X13201728Y-14839529D01*
X13187443Y-14825243D01*
X13173157Y-14796671D01*
X13158871Y-14739529D01*
X13158871Y-14668100D01*
X13173157Y-14610957D01*
X13187443Y-14582386D01*
X13201728Y-14568100D01*
X13230300Y-14553814D01*
X13458871Y-14825243D02*
X13473157Y-14839529D01*
X13458871Y-14853814D01*
X13444586Y-14839529D01*
X13458871Y-14825243D01*
X13458871Y-14853814D01*
X13658871Y-14553814D02*
X13687443Y-14553814D01*
X13716014Y-14568100D01*
X13730300Y-14582386D01*
X13744585Y-14610957D01*
X13758871Y-14668100D01*
X13758871Y-14739529D01*
X13744585Y-14796671D01*
X13730300Y-14825243D01*
X13716014Y-14839529D01*
X13687443Y-14853814D01*
X13658871Y-14853814D01*
X13630300Y-14839529D01*
X13616014Y-14825243D01*
X13601728Y-14796671D01*
X13587443Y-14739529D01*
X13587443Y-14668100D01*
X13601728Y-14610957D01*
X13616014Y-14582386D01*
X13630300Y-14568100D01*
X13658871Y-14553814D01*
X14016014Y-14653814D02*
X14016014Y-14853814D01*
X13944585Y-14539529D02*
X13873157Y-14753814D01*
X14058871Y-14753814D01*
X14144585Y-14553814D02*
X14344585Y-14553814D01*
X14216014Y-14853814D01*
X14444586Y-14553814D02*
X14444586Y-14610957D01*
X14558871Y-14553814D02*
X14558871Y-14610957D01*
X15001728Y-14968100D02*
X14987443Y-14953814D01*
X14958871Y-14910957D01*
X14944585Y-14882386D01*
X14930300Y-14839529D01*
X14916014Y-14768100D01*
X14916014Y-14710957D01*
X14930300Y-14639529D01*
X14944585Y-14596671D01*
X14958871Y-14568100D01*
X14987443Y-14525243D01*
X15001728Y-14510957D01*
X15101728Y-14582386D02*
X15116014Y-14568100D01*
X15144585Y-14553814D01*
X15216014Y-14553814D01*
X15244585Y-14568100D01*
X15258871Y-14582386D01*
X15273157Y-14610957D01*
X15273157Y-14639529D01*
X15258871Y-14682386D01*
X15087443Y-14853814D01*
X15273157Y-14853814D01*
X15458871Y-14553814D02*
X15487443Y-14553814D01*
X15516014Y-14568100D01*
X15530300Y-14582386D01*
X15544585Y-14610957D01*
X15558871Y-14668100D01*
X15558871Y-14739529D01*
X15544585Y-14796671D01*
X15530300Y-14825243D01*
X15516014Y-14839529D01*
X15487443Y-14853814D01*
X15458871Y-14853814D01*
X15430300Y-14839529D01*
X15416014Y-14825243D01*
X15401728Y-14796671D01*
X15387443Y-14739529D01*
X15387443Y-14668100D01*
X15401728Y-14610957D01*
X15416014Y-14582386D01*
X15430300Y-14568100D01*
X15458871Y-14553814D01*
X15916014Y-14853814D02*
X15916014Y-14553814D01*
X16044585Y-14853814D02*
X16044585Y-14696671D01*
X16030300Y-14668100D01*
X16001728Y-14653814D01*
X15958871Y-14653814D01*
X15930300Y-14668100D01*
X15916014Y-14682386D01*
X16230300Y-14853814D02*
X16201728Y-14839529D01*
X16187443Y-14825243D01*
X16173157Y-14796671D01*
X16173157Y-14710957D01*
X16187443Y-14682386D01*
X16201728Y-14668100D01*
X16230300Y-14653814D01*
X16273157Y-14653814D01*
X16301728Y-14668100D01*
X16316014Y-14682386D01*
X16330300Y-14710957D01*
X16330300Y-14796671D01*
X16316014Y-14825243D01*
X16301728Y-14839529D01*
X16273157Y-14853814D01*
X16230300Y-14853814D01*
X16501728Y-14853814D02*
X16473157Y-14839529D01*
X16458871Y-14810957D01*
X16458871Y-14553814D01*
X16730300Y-14839529D02*
X16701728Y-14853814D01*
X16644586Y-14853814D01*
X16616014Y-14839529D01*
X16601728Y-14810957D01*
X16601728Y-14696671D01*
X16616014Y-14668100D01*
X16644586Y-14653814D01*
X16701728Y-14653814D01*
X16730300Y-14668100D01*
X16744586Y-14696671D01*
X16744586Y-14725243D01*
X16601728Y-14753814D01*
X16858871Y-14839529D02*
X16887443Y-14853814D01*
X16944586Y-14853814D01*
X16973157Y-14839529D01*
X16987443Y-14810957D01*
X16987443Y-14796671D01*
X16973157Y-14768100D01*
X16944586Y-14753814D01*
X16901729Y-14753814D01*
X16873157Y-14739529D01*
X16858871Y-14710957D01*
X16858871Y-14696671D01*
X16873157Y-14668100D01*
X16901729Y-14653814D01*
X16944586Y-14653814D01*
X16973157Y-14668100D01*
X17087443Y-14968100D02*
X17101729Y-14953814D01*
X17130300Y-14910957D01*
X17144586Y-14882386D01*
X17158871Y-14839529D01*
X17173157Y-14768100D01*
X17173157Y-14710957D01*
X17158871Y-14639529D01*
X17144586Y-14596671D01*
X17130300Y-14568100D01*
X17101729Y-14525243D01*
X17087443Y-14510957D01*
X10170300Y-15034100D02*
X10330300Y-15194100D01*
X10330300Y-15034100D02*
X10170300Y-15194100D01*
X10330300Y-15114100D02*
G75*
G03X10330300Y-15114100I-80000J0D01*
G01*
X10758871Y-15249814D02*
X10587443Y-15249814D01*
X10673157Y-15249814D02*
X10673157Y-14949814D01*
X10644586Y-14992671D01*
X10616014Y-15021243D01*
X10587443Y-15035529D01*
X10887443Y-15221243D02*
X10901729Y-15235529D01*
X10887443Y-15249814D01*
X10873157Y-15235529D01*
X10887443Y-15221243D01*
X10887443Y-15249814D01*
X11158871Y-14949814D02*
X11101728Y-14949814D01*
X11073157Y-14964100D01*
X11058871Y-14978386D01*
X11030300Y-15021243D01*
X11016014Y-15078386D01*
X11016014Y-15192671D01*
X11030300Y-15221243D01*
X11044586Y-15235529D01*
X11073157Y-15249814D01*
X11130300Y-15249814D01*
X11158871Y-15235529D01*
X11173157Y-15221243D01*
X11187443Y-15192671D01*
X11187443Y-15121243D01*
X11173157Y-15092671D01*
X11158871Y-15078386D01*
X11130300Y-15064100D01*
X11073157Y-15064100D01*
X11044586Y-15078386D01*
X11030300Y-15092671D01*
X11016014Y-15121243D01*
X11373157Y-14949814D02*
X11401728Y-14949814D01*
X11430300Y-14964100D01*
X11444586Y-14978386D01*
X11458871Y-15006957D01*
X11473157Y-15064100D01*
X11473157Y-15135529D01*
X11458871Y-15192671D01*
X11444586Y-15221243D01*
X11430300Y-15235529D01*
X11401728Y-15249814D01*
X11373157Y-15249814D01*
X11344586Y-15235529D01*
X11330300Y-15221243D01*
X11316014Y-15192671D01*
X11301728Y-15135529D01*
X11301728Y-15064100D01*
X11316014Y-15006957D01*
X11330300Y-14978386D01*
X11344586Y-14964100D01*
X11373157Y-14949814D01*
X11601728Y-15249814D02*
X11601728Y-15049814D01*
X11601728Y-15078386D02*
X11616014Y-15064100D01*
X11644586Y-15049814D01*
X11687443Y-15049814D01*
X11716014Y-15064100D01*
X11730300Y-15092671D01*
X11730300Y-15249814D01*
X11730300Y-15092671D02*
X11744586Y-15064100D01*
X11773157Y-15049814D01*
X11816014Y-15049814D01*
X11844586Y-15064100D01*
X11858871Y-15092671D01*
X11858871Y-15249814D01*
X12001728Y-15249814D02*
X12001728Y-15049814D01*
X12001728Y-15078386D02*
X12016014Y-15064100D01*
X12044586Y-15049814D01*
X12087443Y-15049814D01*
X12116014Y-15064100D01*
X12130300Y-15092671D01*
X12130300Y-15249814D01*
X12130300Y-15092671D02*
X12144586Y-15064100D01*
X12173157Y-15049814D01*
X12216014Y-15049814D01*
X12244586Y-15064100D01*
X12258871Y-15092671D01*
X12258871Y-15249814D01*
X12844586Y-14935529D02*
X12587443Y-15321243D01*
X13230300Y-14949814D02*
X13258871Y-14949814D01*
X13287443Y-14964100D01*
X13301728Y-14978386D01*
X13316014Y-15006957D01*
X13330300Y-15064100D01*
X13330300Y-15135529D01*
X13316014Y-15192671D01*
X13301728Y-15221243D01*
X13287443Y-15235529D01*
X13258871Y-15249814D01*
X13230300Y-15249814D01*
X13201728Y-15235529D01*
X13187443Y-15221243D01*
X13173157Y-15192671D01*
X13158871Y-15135529D01*
X13158871Y-15064100D01*
X13173157Y-15006957D01*
X13187443Y-14978386D01*
X13201728Y-14964100D01*
X13230300Y-14949814D01*
X13458871Y-15221243D02*
X13473157Y-15235529D01*
X13458871Y-15249814D01*
X13444586Y-15235529D01*
X13458871Y-15221243D01*
X13458871Y-15249814D01*
X13658871Y-14949814D02*
X13687443Y-14949814D01*
X13716014Y-14964100D01*
X13730300Y-14978386D01*
X13744585Y-15006957D01*
X13758871Y-15064100D01*
X13758871Y-15135529D01*
X13744585Y-15192671D01*
X13730300Y-15221243D01*
X13716014Y-15235529D01*
X13687443Y-15249814D01*
X13658871Y-15249814D01*
X13630300Y-15235529D01*
X13616014Y-15221243D01*
X13601728Y-15192671D01*
X13587443Y-15135529D01*
X13587443Y-15064100D01*
X13601728Y-15006957D01*
X13616014Y-14978386D01*
X13630300Y-14964100D01*
X13658871Y-14949814D01*
X14016014Y-14949814D02*
X13958871Y-14949814D01*
X13930300Y-14964100D01*
X13916014Y-14978386D01*
X13887443Y-15021243D01*
X13873157Y-15078386D01*
X13873157Y-15192671D01*
X13887443Y-15221243D01*
X13901728Y-15235529D01*
X13930300Y-15249814D01*
X13987443Y-15249814D01*
X14016014Y-15235529D01*
X14030300Y-15221243D01*
X14044585Y-15192671D01*
X14044585Y-15121243D01*
X14030300Y-15092671D01*
X14016014Y-15078386D01*
X13987443Y-15064100D01*
X13930300Y-15064100D01*
X13901728Y-15078386D01*
X13887443Y-15092671D01*
X13873157Y-15121243D01*
X14144585Y-14949814D02*
X14330300Y-14949814D01*
X14230300Y-15064100D01*
X14273157Y-15064100D01*
X14301728Y-15078386D01*
X14316014Y-15092671D01*
X14330300Y-15121243D01*
X14330300Y-15192671D01*
X14316014Y-15221243D01*
X14301728Y-15235529D01*
X14273157Y-15249814D01*
X14187443Y-15249814D01*
X14158871Y-15235529D01*
X14144585Y-15221243D01*
X14444586Y-14949814D02*
X14444586Y-15006957D01*
X14558871Y-14949814D02*
X14558871Y-15006957D01*
X15001728Y-15364100D02*
X14987443Y-15349814D01*
X14958871Y-15306957D01*
X14944585Y-15278386D01*
X14930300Y-15235529D01*
X14916014Y-15164100D01*
X14916014Y-15106957D01*
X14930300Y-15035529D01*
X14944585Y-14992671D01*
X14958871Y-14964100D01*
X14987443Y-14921243D01*
X15001728Y-14906957D01*
X15273157Y-15249814D02*
X15101728Y-15249814D01*
X15187443Y-15249814D02*
X15187443Y-14949814D01*
X15158871Y-14992671D01*
X15130300Y-15021243D01*
X15101728Y-15035529D01*
X15630300Y-15249814D02*
X15630300Y-14949814D01*
X15758871Y-15249814D02*
X15758871Y-15092671D01*
X15744585Y-15064100D01*
X15716014Y-15049814D01*
X15673157Y-15049814D01*
X15644585Y-15064100D01*
X15630300Y-15078386D01*
X15944585Y-15249814D02*
X15916014Y-15235529D01*
X15901728Y-15221243D01*
X15887443Y-15192671D01*
X15887443Y-15106957D01*
X15901728Y-15078386D01*
X15916014Y-15064100D01*
X15944585Y-15049814D01*
X15987443Y-15049814D01*
X16016014Y-15064100D01*
X16030300Y-15078386D01*
X16044585Y-15106957D01*
X16044585Y-15192671D01*
X16030300Y-15221243D01*
X16016014Y-15235529D01*
X15987443Y-15249814D01*
X15944585Y-15249814D01*
X16216014Y-15249814D02*
X16187443Y-15235529D01*
X16173157Y-15206957D01*
X16173157Y-14949814D01*
X16444586Y-15235529D02*
X16416014Y-15249814D01*
X16358871Y-15249814D01*
X16330300Y-15235529D01*
X16316014Y-15206957D01*
X16316014Y-15092671D01*
X16330300Y-15064100D01*
X16358871Y-15049814D01*
X16416014Y-15049814D01*
X16444586Y-15064100D01*
X16458871Y-15092671D01*
X16458871Y-15121243D01*
X16316014Y-15149814D01*
X16558871Y-15364100D02*
X16573157Y-15349814D01*
X16601728Y-15306957D01*
X16616014Y-15278386D01*
X16630300Y-15235529D01*
X16644586Y-15164100D01*
X16644586Y-15106957D01*
X16630300Y-15035529D01*
X16616014Y-14992671D01*
X16601728Y-14964100D01*
X16573157Y-14921243D01*
X16558871Y-14906957D01*
X9520300Y-15105100D02*
X10330300Y-15915100D01*
X10330300Y-15105100D02*
X9520300Y-15915100D01*
X9925300Y-15105100D02*
X9925300Y-15915100D01*
X9520300Y-15510100D02*
X10330300Y-15510100D01*
X10644586Y-15474386D02*
X10616014Y-15460100D01*
X10601729Y-15445814D01*
X10587443Y-15417243D01*
X10587443Y-15402957D01*
X10601729Y-15374386D01*
X10616014Y-15360100D01*
X10644586Y-15345814D01*
X10701729Y-15345814D01*
X10730300Y-15360100D01*
X10744586Y-15374386D01*
X10758871Y-15402957D01*
X10758871Y-15417243D01*
X10744586Y-15445814D01*
X10730300Y-15460100D01*
X10701729Y-15474386D01*
X10644586Y-15474386D01*
X10616014Y-15488671D01*
X10601729Y-15502957D01*
X10587443Y-15531529D01*
X10587443Y-15588671D01*
X10601729Y-15617243D01*
X10616014Y-15631529D01*
X10644586Y-15645814D01*
X10701729Y-15645814D01*
X10730300Y-15631529D01*
X10744586Y-15617243D01*
X10758871Y-15588671D01*
X10758871Y-15531529D01*
X10744586Y-15502957D01*
X10730300Y-15488671D01*
X10701729Y-15474386D01*
X10887443Y-15617243D02*
X10901729Y-15631529D01*
X10887443Y-15645814D01*
X10873157Y-15631529D01*
X10887443Y-15617243D01*
X10887443Y-15645814D01*
X11187443Y-15645814D02*
X11016014Y-15645814D01*
X11101728Y-15645814D02*
X11101728Y-15345814D01*
X11073157Y-15388671D01*
X11044586Y-15417243D01*
X11016014Y-15431529D01*
X11373157Y-15345814D02*
X11401728Y-15345814D01*
X11430300Y-15360100D01*
X11444586Y-15374386D01*
X11458871Y-15402957D01*
X11473157Y-15460100D01*
X11473157Y-15531529D01*
X11458871Y-15588671D01*
X11444586Y-15617243D01*
X11430300Y-15631529D01*
X11401728Y-15645814D01*
X11373157Y-15645814D01*
X11344586Y-15631529D01*
X11330300Y-15617243D01*
X11316014Y-15588671D01*
X11301728Y-15531529D01*
X11301728Y-15460100D01*
X11316014Y-15402957D01*
X11330300Y-15374386D01*
X11344586Y-15360100D01*
X11373157Y-15345814D01*
X11601728Y-15645814D02*
X11601728Y-15445814D01*
X11601728Y-15474386D02*
X11616014Y-15460100D01*
X11644586Y-15445814D01*
X11687443Y-15445814D01*
X11716014Y-15460100D01*
X11730300Y-15488671D01*
X11730300Y-15645814D01*
X11730300Y-15488671D02*
X11744586Y-15460100D01*
X11773157Y-15445814D01*
X11816014Y-15445814D01*
X11844586Y-15460100D01*
X11858871Y-15488671D01*
X11858871Y-15645814D01*
X12001728Y-15645814D02*
X12001728Y-15445814D01*
X12001728Y-15474386D02*
X12016014Y-15460100D01*
X12044586Y-15445814D01*
X12087443Y-15445814D01*
X12116014Y-15460100D01*
X12130300Y-15488671D01*
X12130300Y-15645814D01*
X12130300Y-15488671D02*
X12144586Y-15460100D01*
X12173157Y-15445814D01*
X12216014Y-15445814D01*
X12244586Y-15460100D01*
X12258871Y-15488671D01*
X12258871Y-15645814D01*
X12844586Y-15331529D02*
X12587443Y-15717243D01*
X13230300Y-15345814D02*
X13258871Y-15345814D01*
X13287443Y-15360100D01*
X13301728Y-15374386D01*
X13316014Y-15402957D01*
X13330300Y-15460100D01*
X13330300Y-15531529D01*
X13316014Y-15588671D01*
X13301728Y-15617243D01*
X13287443Y-15631529D01*
X13258871Y-15645814D01*
X13230300Y-15645814D01*
X13201728Y-15631529D01*
X13187443Y-15617243D01*
X13173157Y-15588671D01*
X13158871Y-15531529D01*
X13158871Y-15460100D01*
X13173157Y-15402957D01*
X13187443Y-15374386D01*
X13201728Y-15360100D01*
X13230300Y-15345814D01*
X13458871Y-15617243D02*
X13473157Y-15631529D01*
X13458871Y-15645814D01*
X13444586Y-15631529D01*
X13458871Y-15617243D01*
X13458871Y-15645814D01*
X13573157Y-15345814D02*
X13758871Y-15345814D01*
X13658871Y-15460100D01*
X13701728Y-15460100D01*
X13730300Y-15474386D01*
X13744585Y-15488671D01*
X13758871Y-15517243D01*
X13758871Y-15588671D01*
X13744585Y-15617243D01*
X13730300Y-15631529D01*
X13701728Y-15645814D01*
X13616014Y-15645814D01*
X13587443Y-15631529D01*
X13573157Y-15617243D01*
X14044585Y-15645814D02*
X13873157Y-15645814D01*
X13958871Y-15645814D02*
X13958871Y-15345814D01*
X13930300Y-15388671D01*
X13901728Y-15417243D01*
X13873157Y-15431529D01*
X14187443Y-15645814D02*
X14244585Y-15645814D01*
X14273157Y-15631529D01*
X14287443Y-15617243D01*
X14316014Y-15574386D01*
X14330300Y-15517243D01*
X14330300Y-15402957D01*
X14316014Y-15374386D01*
X14301728Y-15360100D01*
X14273157Y-15345814D01*
X14216014Y-15345814D01*
X14187443Y-15360100D01*
X14173157Y-15374386D01*
X14158871Y-15402957D01*
X14158871Y-15474386D01*
X14173157Y-15502957D01*
X14187443Y-15517243D01*
X14216014Y-15531529D01*
X14273157Y-15531529D01*
X14301728Y-15517243D01*
X14316014Y-15502957D01*
X14330300Y-15474386D01*
X14444586Y-15345814D02*
X14444586Y-15402957D01*
X14558871Y-15345814D02*
X14558871Y-15402957D01*
X15001728Y-15760100D02*
X14987443Y-15745814D01*
X14958871Y-15702957D01*
X14944585Y-15674386D01*
X14930300Y-15631529D01*
X14916014Y-15560100D01*
X14916014Y-15502957D01*
X14930300Y-15431529D01*
X14944585Y-15388671D01*
X14958871Y-15360100D01*
X14987443Y-15317243D01*
X15001728Y-15302957D01*
X15101728Y-15374386D02*
X15116014Y-15360100D01*
X15144585Y-15345814D01*
X15216014Y-15345814D01*
X15244585Y-15360100D01*
X15258871Y-15374386D01*
X15273157Y-15402957D01*
X15273157Y-15431529D01*
X15258871Y-15474386D01*
X15087443Y-15645814D01*
X15273157Y-15645814D01*
X15630300Y-15645814D02*
X15630300Y-15345814D01*
X15758871Y-15645814D02*
X15758871Y-15488671D01*
X15744585Y-15460100D01*
X15716014Y-15445814D01*
X15673157Y-15445814D01*
X15644585Y-15460100D01*
X15630300Y-15474386D01*
X15944585Y-15645814D02*
X15916014Y-15631529D01*
X15901728Y-15617243D01*
X15887443Y-15588671D01*
X15887443Y-15502957D01*
X15901728Y-15474386D01*
X15916014Y-15460100D01*
X15944585Y-15445814D01*
X15987443Y-15445814D01*
X16016014Y-15460100D01*
X16030300Y-15474386D01*
X16044585Y-15502957D01*
X16044585Y-15588671D01*
X16030300Y-15617243D01*
X16016014Y-15631529D01*
X15987443Y-15645814D01*
X15944585Y-15645814D01*
X16216014Y-15645814D02*
X16187443Y-15631529D01*
X16173157Y-15602957D01*
X16173157Y-15345814D01*
X16444586Y-15631529D02*
X16416014Y-15645814D01*
X16358871Y-15645814D01*
X16330300Y-15631529D01*
X16316014Y-15602957D01*
X16316014Y-15488671D01*
X16330300Y-15460100D01*
X16358871Y-15445814D01*
X16416014Y-15445814D01*
X16444586Y-15460100D01*
X16458871Y-15488671D01*
X16458871Y-15517243D01*
X16316014Y-15545814D01*
X16573157Y-15631529D02*
X16601728Y-15645814D01*
X16658871Y-15645814D01*
X16687443Y-15631529D01*
X16701728Y-15602957D01*
X16701728Y-15588671D01*
X16687443Y-15560100D01*
X16658871Y-15545814D01*
X16616014Y-15545814D01*
X16587443Y-15531529D01*
X16573157Y-15502957D01*
X16573157Y-15488671D01*
X16587443Y-15460100D01*
X16616014Y-15445814D01*
X16658871Y-15445814D01*
X16687443Y-15460100D01*
X16801728Y-15760100D02*
X16816014Y-15745814D01*
X16844586Y-15702957D01*
X16858871Y-15674386D01*
X16873157Y-15631529D01*
X16887443Y-15560100D01*
X16887443Y-15502957D01*
X16873157Y-15431529D01*
X16858871Y-15388671D01*
X16844586Y-15360100D01*
X16816014Y-15317243D01*
X16801728Y-15302957D01*
M02*
